<svg width="50" height="50" viewBox="0 0 50 50" fill="none" xmlns="http://www.w3.org/2000/svg">
<path fill-rule="evenodd" clip-rule="evenodd" d="M25 50C11.1937 50 0 38.8063 0 25C0 11.1937 11.1937 0 25 0C38.8063 0 50 11.1937 50 25C50 38.8063 38.8063 50 25 50ZM25 6.25C14.6438 6.25 6.25 14.6438 6.25 25C6.25 35.3563 14.6438 43.75 25 43.75C35.3563 43.75 43.75 35.3563 43.75 25C43.75 14.6438 35.3563 6.25 25 6.25ZM37.5 28.125H25C23.2812 28.125 21.8906 26.7438 21.875 25.0312V12.4688C21.875 10.75 23.275 9.34375 25 9.34375C26.725 9.34375 28.125 10.75 28.125 12.4688V21.875H37.5C39.225 21.875 40.625 23.275 40.625 25C40.625 26.725 39.225 28.125 37.5 28.125Z" fill="#1CEA24"/>
</svg>
