<svg width="112" height="112" viewBox="0 0 112 112" fill="none" xmlns="http://www.w3.org/2000/svg">
<path d="M56.1 111.1C86.4757 111.1 111.1 86.4757 111.1 56.1C111.1 25.7243 86.4757 1.10001 56.1 1.10001C25.7243 1.10001 1.10001 25.7243 1.10001 56.1C1.10001 86.4757 25.7243 111.1 56.1 111.1Z" fill="#F10B95"/>
<path d="M55.9 38.2C46 38.2 38 46.2 38 56.1C38 66 46 74 55.9 74C65.8 74 73.8 66 73.8 56.1C73.8 46.2 65.8 38.2 55.9 38.2ZM55.9 66.4C50.2 66.4 45.6 61.8 45.6 56.1C45.5 50.4 50.2 45.8 55.9 45.8C61.6 45.8 66.2 50.4 66.2 56.1C66.2 61.8 61.6 66.4 55.9 66.4Z" fill="white"/>
<path d="M74.3 33.5C72 33.5 70.1 35.4 70.1 37.7C70.1 40 72 41.9 74.3 41.9C76.6 41.9 78.5 40 78.5 37.7C78.5 35.4 76.6 33.5 74.3 33.5Z" fill="white"/>
<path d="M73.1 21.3H38.6C28.9 21.3 21.1 29.2 21.1 38.8V73.3C21.1 83 29 90.9 38.6 90.9H73.1C82.8 90.9 90.6 83 90.6 73.4V38.8C90.6 29.1 82.7 21.3 73.1 21.3ZM83 73.3C83 78.8 78.5 83.2 73.1 83.2H38.6C33.1 83.2 28.7 78.7 28.7 73.3V38.8C28.7 33.3 33.2 28.9 38.6 28.9H73.1C78.6 28.9 83 33.4 83 38.8V73.3Z" fill="white"/>
</svg>


