<svg width="112" height="112" viewBox="0 0 112 112" fill="none" xmlns="http://www.w3.org/2000/svg">
<path d="M56.1 111.1C86.4756 111.1 111.1 86.4757 111.1 56.1C111.1 25.7243 86.4756 1.10001 56.1 1.10001C25.7243 1.10001 1.09998 25.7243 1.09998 56.1C1.09998 86.4757 25.7243 111.1 56.1 111.1Z" fill="#0CB4FD"/>
<path d="M41.3 83.7H27.9V43.4H41.3V83.7ZM34.6 37.9C30 37.9 27.1 34.8 27.1 30.9C27.1 26.9 30.1 23.9 34.7 23.9C39.3 23.9 42.1 26.9 42.2 30.9C42.2 34.8 39.2 37.9 34.6 37.9ZM89.6 83.7H76.2V62.2C76.2 56.8 74.3 53.1 69.4 53.1C65.7 53.1 63.5 55.6 62.5 58C62.1 58.9 62.1 60.1 62.1 61.3V83.8H48.7C48.7 83.8 48.9 47.3 48.7 43.5H62.1V49.2C63.9 46.5 67.1 42.5 74.2 42.5C83 42.5 89.6 48.3 89.6 60.6V83.7Z" fill="white"/>
</svg>



