<svg width="303" height="343" viewBox="0 0 303 343" fill="none" xmlns="http://www.w3.org/2000/svg">
<g filter="url(#filter0_i)">
<g filter="url(#filter1_dd)">
<path d="M125.131 0.881195C116.561 3.04108 109.969 7.36087 103.872 14.6713C98.2682 21.1509 92.9944 34.1103 92.9944 41.2546C92.9944 44.079 90.6872 44.2452 57.5615 44.2452C17.6788 44.2452 12.8994 45.2421 7.29609 54.5462C4 59.8629 4 62.5212 4 191.118V322.041L10.4274 328.52L16.8547 335H151.5H286.145L292.573 328.52L299 322.041V191.118C299 62.5212 299 59.8629 295.704 54.5462C291.584 47.9004 283.673 44.2452 272.961 44.2452C262.413 44.2452 250.547 40.2577 210.83 22.9785C192.701 15.1697 172.265 7.02856 165.508 4.86868C152.159 0.715027 133.042 -1.27872 125.131 0.881195ZM167.98 21.6494C182.483 26.7999 217.916 41.753 219.729 43.5806C220.059 43.9129 195.008 44.2452 163.86 44.2452H107.332L108.321 38.2639C109.64 29.9567 116.232 20.4864 122.824 16.9973C131.229 12.6775 147.71 14.339 167.98 21.6494ZM285.486 189.955L284.992 290.971H151.5H18.0084L17.514 189.955L17.1844 89.1045H151.5H285.816L285.486 189.955Z" fill="#48B8B1"/>
<path d="M125.263 1.36362L125.253 1.36603C116.796 3.49753 110.293 7.75385 104.256 14.9916L104.25 14.9983C101.496 18.1831 98.8013 22.9897 96.7946 27.9027C94.7852 32.8224 93.4944 37.7778 93.4944 41.2546C93.4944 41.6347 93.4572 42.0322 93.284 42.4048C93.1047 42.7905 92.8032 43.1008 92.3614 43.3492C91.5209 43.822 90.0935 44.1106 87.7418 44.3073C82.9977 44.7041 74.1116 44.7452 57.5615 44.7452C37.5993 44.7452 26.4937 44.9968 19.6746 46.3964C16.2807 47.093 13.9882 48.0673 12.2065 49.4107C10.4226 50.7558 9.11272 52.4989 7.72445 54.8042L7.72105 54.8097C6.92947 56.0865 6.33714 57.1864 5.8847 60.1208C5.42672 63.0911 5.11791 67.9106 4.91187 76.6139C4.50004 94.01 4.5 126.815 4.5 191.118V321.835L10.7824 328.168L17.063 334.5H151.5H285.937L292.218 328.168L298.5 321.835V191.118C298.5 126.815 298.5 94.01 298.088 76.6139C297.882 67.9106 297.573 63.0911 297.115 60.1208C296.663 57.1864 296.071 56.0865 295.279 54.8097C291.28 48.3594 283.566 44.7452 272.961 44.7452C267.612 44.7452 261.951 43.7313 252.673 40.5647C243.401 37.4005 230.488 32.0761 210.63 23.437C192.502 15.6285 172.09 7.49786 165.358 5.34552C158.721 3.2807 150.639 1.74969 143.23 1.00485C135.802 0.257996 129.123 0.309479 125.263 1.36362ZM107.332 44.7452H106.743L106.839 44.1636L107.827 38.1856C107.827 38.1853 107.828 38.185 107.828 38.1847C108.501 33.9413 110.515 29.4283 113.183 25.5409C115.849 21.6557 119.201 18.3492 122.59 16.5554L122.595 16.5526C126.925 14.3275 133.262 13.6716 141.003 14.4646C148.759 15.259 157.987 17.514 168.148 21.1783C175.414 23.7587 187.908 28.7892 198.808 33.4006C204.259 35.7068 209.317 37.9103 213.126 39.6524C215.03 40.5232 216.627 41.2805 217.806 41.8788C218.395 42.1778 218.886 42.4395 219.26 42.6576C219.617 42.8653 219.918 43.0608 220.084 43.2285C220.155 43.3004 220.267 43.4626 220.223 43.6855C220.186 43.8726 220.06 43.9713 220.019 44.0012C219.931 44.065 219.838 44.0887 219.816 44.0947C219.787 44.1024 219.756 44.1091 219.723 44.1151C219.67 44.1249 219.613 44.1327 219.558 44.1393C219.368 44.1619 219.088 44.1832 218.729 44.2037C218.007 44.2451 216.928 44.2855 215.533 44.3244C212.74 44.4024 208.663 44.4752 203.605 44.5375C193.488 44.6621 179.436 44.7452 163.86 44.7452H107.332ZM285.986 189.957V189.957L285.492 290.974L285.489 291.471H284.992H151.5H18.0084H17.5108L17.5084 290.974L17.014 189.957L17.014 189.957L16.6844 89.1061L16.6827 88.6045H17.1844H151.5H285.816H286.317L286.316 89.1061L285.986 189.957Z" stroke="black"/>
</g>
<path d="M74.4962 99.5634C74.4962 106.717 78.0994 111.486 84.679 113.235C87.1855 113.871 88.5955 115.301 88.5955 117.209C88.5955 119.594 89.6921 120.229 94.8618 120.229C100.032 120.229 101.128 119.594 101.128 117.209C101.128 115.301 102.538 113.871 105.045 113.235C111.624 111.486 115.227 106.717 115.227 99.5634V93.2046H94.8618H74.4962V99.5634Z" fill="#48B8B1"/>
</g>
<g filter="url(#filter2_d)">
<path d="M192.259 287.016H190.259V263.716H192.259C192.259 269.983 194.492 275.316 198.959 279.716C203.492 284.116 208.992 286.316 215.459 286.316C218.126 286.316 220.259 285.549 221.859 284.016C223.526 282.416 224.359 280.316 224.359 277.716C224.359 274.783 222.459 272.283 218.659 270.216C216.592 269.149 213.026 267.483 207.959 265.216C202.892 262.883 199.326 260.916 197.259 259.316C193.126 256.116 191.292 251.883 191.759 246.616C192.292 241.349 194.292 237.283 197.759 234.416C201.226 231.483 205.126 230.016 209.459 230.016C213.859 230.016 217.792 230.616 221.259 231.816C224.792 232.949 226.792 233.516 227.259 233.516C228.592 233.516 229.259 232.349 229.259 230.016H231.259V248.316H229.259C229.259 243.516 227.492 239.616 223.959 236.616C220.426 233.549 215.892 232.016 210.359 232.016C207.892 232.016 205.959 232.749 204.559 234.216C203.159 235.616 202.459 237.183 202.459 238.916C202.459 240.649 202.692 241.983 203.159 242.916C203.626 243.849 204.426 244.716 205.559 245.516C206.759 246.249 207.792 246.849 208.659 247.316C209.526 247.783 210.892 248.416 212.759 249.216C214.692 250.016 216.026 250.583 216.759 250.916C220.426 252.583 222.592 253.583 223.259 253.916C223.926 254.183 224.892 254.649 226.159 255.316C227.426 255.983 228.359 256.583 228.959 257.116C229.626 257.649 230.459 258.316 231.459 259.116C232.459 259.916 233.192 260.749 233.659 261.616C234.126 262.416 234.592 263.349 235.059 264.416C235.992 266.549 236.326 269.049 236.059 271.916C235.526 277.316 233.492 281.449 229.959 284.316C226.492 287.116 221.792 288.516 215.859 288.516C210.526 288.516 205.226 287.149 199.959 284.416C198.159 283.483 196.826 283.016 195.959 283.016C193.492 283.016 192.259 284.349 192.259 287.016Z" fill="#A6D0CC"/>
<path d="M192.259 287.016V288.016H193.259V287.016H192.259ZM190.259 287.016H189.259V288.016H190.259V287.016ZM190.259 263.716V262.716H189.259V263.716H190.259ZM192.259 263.716H193.259V262.716H192.259V263.716ZM198.959 279.716L198.257 280.428L198.263 280.434L198.959 279.716ZM221.859 284.016L222.551 284.738L222.552 284.737L221.859 284.016ZM218.659 270.216L219.137 269.338L219.127 269.332L219.118 269.327L218.659 270.216ZM207.959 265.216L207.541 266.124L207.551 266.129L207.959 265.216ZM197.259 259.316L196.647 260.107L197.259 259.316ZM191.759 246.616L190.764 246.515L190.763 246.528L191.759 246.616ZM197.759 234.416L198.396 235.187L198.405 235.179L197.759 234.416ZM221.259 231.816L220.932 232.761L220.943 232.765L220.954 232.768L221.259 231.816ZM229.259 230.016V229.016H228.259V230.016H229.259ZM231.259 230.016H232.259V229.016H231.259V230.016ZM231.259 248.316V249.316H232.259V248.316H231.259ZM229.259 248.316H228.259V249.316H229.259V248.316ZM223.959 236.616L223.304 237.371L223.312 237.378L223.959 236.616ZM204.559 234.216L205.266 234.923L205.274 234.915L205.282 234.907L204.559 234.216ZM205.559 245.516L204.982 246.333L205.009 246.352L205.038 246.369L205.559 245.516ZM208.659 247.316L209.133 246.436L208.659 247.316ZM212.759 249.216L212.365 250.135L212.377 250.14L212.759 249.216ZM216.759 250.916L217.173 250.006L216.759 250.916ZM223.259 253.916L222.812 254.81L222.849 254.829L222.888 254.845L223.259 253.916ZM226.159 255.316L225.693 256.201L226.159 255.316ZM228.959 257.116L228.295 257.863L228.314 257.881L228.334 257.897L228.959 257.116ZM231.459 259.116L232.084 258.335L231.459 259.116ZM233.659 261.616L232.779 262.09L232.787 262.105L232.795 262.12L233.659 261.616ZM235.059 264.416L234.143 264.817V264.817L235.059 264.416ZM236.059 271.916L237.054 272.014L237.055 272.009L236.059 271.916ZM229.959 284.316L230.587 285.094L230.589 285.093L229.959 284.316ZM199.959 284.416L200.42 283.528L200.419 283.528L199.959 284.416ZM192.259 286.016H190.259V288.016H192.259V286.016ZM191.259 287.016V263.716H189.259V287.016H191.259ZM190.259 264.716H192.259V262.716H190.259V264.716ZM191.259 263.716C191.259 270.251 193.6 275.841 198.257 280.428L199.661 279.004C195.385 274.791 193.259 269.715 193.259 263.716H191.259ZM198.263 280.434C202.987 285.019 208.739 287.316 215.459 287.316V285.316C209.246 285.316 203.997 283.213 199.656 278.998L198.263 280.434ZM215.459 287.316C218.328 287.316 220.728 286.485 222.551 284.738L221.167 283.294C219.79 284.614 217.924 285.316 215.459 285.316V287.316ZM222.552 284.737C224.44 282.924 225.359 280.551 225.359 277.716H223.359C223.359 280.081 222.611 281.908 221.167 283.295L222.552 284.737ZM225.359 277.716C225.359 274.257 223.09 271.487 219.137 269.338L218.181 271.095C221.829 273.078 223.359 275.308 223.359 277.716H225.359ZM219.118 269.327C217.024 268.247 213.434 266.57 208.367 264.303L207.551 266.129C212.617 268.395 216.161 270.052 218.2 271.105L219.118 269.327ZM208.377 264.308C203.32 261.979 199.842 260.051 197.871 258.525L196.647 260.107C198.809 261.781 202.465 263.787 207.541 266.124L208.377 264.308ZM197.871 258.525C194.011 255.537 192.318 251.636 192.755 246.704L190.763 246.528C190.267 252.129 192.24 256.695 196.647 260.107L197.871 258.525ZM192.754 246.717C193.266 241.662 195.168 237.856 198.396 235.187L197.122 233.645C193.417 236.709 191.319 241.037 190.764 246.515L192.754 246.717ZM198.405 235.179C201.7 232.391 205.374 231.016 209.459 231.016V229.016C204.877 229.016 200.751 230.575 197.113 233.653L198.405 235.179ZM209.459 231.016C213.769 231.016 217.589 231.604 220.932 232.761L221.586 230.871C217.996 229.628 213.949 229.016 209.459 229.016V231.016ZM220.954 232.768C222.724 233.336 224.12 233.765 225.136 234.053C225.644 234.197 226.066 234.308 226.398 234.384C226.695 234.453 227.013 234.516 227.259 234.516V232.516C227.272 232.516 227.164 232.508 226.845 232.435C226.56 232.37 226.174 232.269 225.682 232.129C224.698 231.85 223.327 231.429 221.564 230.864L220.954 232.768ZM227.259 234.516C228.288 234.516 229.118 234.029 229.627 233.137C230.089 232.329 230.259 231.245 230.259 230.016H228.259C228.259 231.12 228.096 231.787 227.891 232.145C227.734 232.42 227.563 232.516 227.259 232.516V234.516ZM229.259 231.016H231.259V229.016H229.259V231.016ZM230.259 230.016V248.316H232.259V230.016H230.259ZM231.259 247.316H229.259V249.316H231.259V247.316ZM230.259 248.316C230.259 243.234 228.372 239.051 224.606 235.854L223.312 237.378C226.612 240.181 228.259 243.798 228.259 248.316H230.259ZM224.615 235.861C220.867 232.608 216.087 231.016 210.359 231.016V233.016C215.698 233.016 219.984 234.49 223.304 237.371L224.615 235.861ZM210.359 231.016C207.683 231.016 205.464 231.82 203.836 233.526L205.282 234.907C206.454 233.679 208.102 233.016 210.359 233.016V231.016ZM203.852 233.509C202.293 235.067 201.459 236.879 201.459 238.916H203.459C203.459 237.486 204.025 236.165 205.266 234.923L203.852 233.509ZM201.459 238.916C201.459 240.714 201.697 242.228 202.265 243.363L204.053 242.469C203.688 241.737 203.459 240.584 203.459 238.916H201.459ZM202.265 243.363C202.825 244.485 203.757 245.468 204.982 246.333L206.136 244.699C205.094 243.964 204.426 243.214 204.053 242.469L202.265 243.363ZM205.038 246.369C206.247 247.109 207.297 247.718 208.185 248.197L209.133 246.436C208.288 245.98 207.271 245.39 206.08 244.663L205.038 246.369ZM208.185 248.197C209.093 248.685 210.493 249.333 212.365 250.135L213.153 248.297C211.291 247.499 209.959 246.88 209.133 246.436L208.185 248.197ZM212.377 250.14C214.311 250.94 215.629 251.501 216.345 251.826L217.173 250.006C216.422 249.664 215.074 249.092 213.141 248.292L212.377 250.14ZM216.345 251.826C220.021 253.497 222.166 254.488 222.812 254.81L223.706 253.022C223.019 252.678 220.83 251.668 217.173 250.006L216.345 251.826ZM222.888 254.845C223.504 255.091 224.434 255.538 225.693 256.201L226.625 254.431C225.351 253.761 224.347 253.274 223.63 252.988L222.888 254.845ZM225.693 256.201C226.935 256.854 227.785 257.41 228.295 257.863L229.623 256.369C228.933 255.755 227.917 255.111 226.625 254.431L225.693 256.201ZM228.334 257.897C229.001 258.43 229.834 259.097 230.834 259.897L232.084 258.335C231.084 257.535 230.25 256.869 229.584 256.335L228.334 257.897ZM230.834 259.897C231.759 260.637 232.392 261.372 232.779 262.09L234.54 261.142C233.993 260.127 233.159 259.195 232.084 258.335L230.834 259.897ZM232.795 262.12C233.238 262.879 233.688 263.777 234.143 264.817L235.975 264.015C235.497 262.922 235.013 261.953 234.523 261.112L232.795 262.12ZM234.143 264.817C234.994 266.763 235.318 269.086 235.063 271.823L237.055 272.009C237.333 269.013 236.991 266.336 235.975 264.015L234.143 264.817ZM235.064 271.818C234.551 277.007 232.616 280.873 229.329 283.539L230.589 285.093C234.369 282.026 236.5 277.625 237.054 272.014L235.064 271.818ZM229.331 283.538C226.093 286.153 221.64 287.516 215.859 287.516V289.516C221.945 289.516 226.892 288.079 230.587 285.094L229.331 283.538ZM215.859 287.516C210.703 287.516 205.56 286.196 200.42 283.528L199.498 285.304C204.891 288.102 210.348 289.516 215.859 289.516V287.516ZM200.419 283.528C198.619 282.595 197.093 282.016 195.959 282.016V284.016C196.559 284.016 197.699 284.37 199.499 285.304L200.419 283.528ZM195.959 282.016C194.551 282.016 193.316 282.4 192.45 283.337C191.597 284.259 191.259 285.547 191.259 287.016H193.259C193.259 285.818 193.538 285.106 193.918 284.695C194.285 284.298 194.901 284.016 195.959 284.016V282.016Z" fill="black"/>
</g>
<g filter="url(#filter3_d)">
<path d="M173.091 260C188.091 260 195.591 251.5 195.591 234.5H198.591V263H128.091V260H135.591V182H128.091V179H197.091V204.5H194.091C194.091 195.6 192.291 189.65 188.691 186.65C185.191 183.55 179.491 182 171.591 182H158.091V218H164.091C171.291 218 175.841 217.1 177.741 215.3C179.641 213.5 180.591 209.9 180.591 204.5H183.591V234.5H180.591C180.591 228.9 179.641 225.25 177.741 223.55C175.841 221.85 171.291 221 164.091 221H158.091V260H173.091Z" fill="#06FCE5"/>
<path d="M195.591 234.5V233.5H194.591V234.5H195.591ZM198.591 234.5H199.591V233.5H198.591V234.5ZM198.591 263V264H199.591V263H198.591ZM128.091 263H127.091V264H128.091V263ZM128.091 260V259H127.091V260H128.091ZM135.591 260V261H136.591V260H135.591ZM135.591 182H136.591V181H135.591V182ZM128.091 182H127.091V183H128.091V182ZM128.091 179V178H127.091V179H128.091ZM197.091 179H198.091V178H197.091V179ZM197.091 204.5V205.5H198.091V204.5H197.091ZM194.091 204.5H193.091V205.5H194.091V204.5ZM188.691 186.65L188.028 187.399L188.039 187.409L188.051 187.418L188.691 186.65ZM158.091 182V181H157.091V182H158.091ZM158.091 218H157.091V219H158.091V218ZM180.591 204.5V203.5H179.591V204.5H180.591ZM183.591 204.5H184.591V203.5H183.591V204.5ZM183.591 234.5V235.5H184.591V234.5H183.591ZM180.591 234.5H179.591V235.5H180.591V234.5ZM177.741 223.55L178.408 222.805L177.741 223.55ZM158.091 221V220H157.091V221H158.091ZM158.091 260H157.091V261H158.091V260ZM173.091 261C180.78 261 186.72 258.816 190.716 254.287C194.691 249.781 196.591 243.125 196.591 234.5H194.591C194.591 242.875 192.741 248.969 189.216 252.963C185.713 256.934 180.402 259 173.091 259V261ZM195.591 235.5H198.591V233.5H195.591V235.5ZM197.591 234.5V263H199.591V234.5H197.591ZM198.591 262H128.091V264H198.591V262ZM129.091 263V260H127.091V263H129.091ZM128.091 261H135.591V259H128.091V261ZM136.591 260V182H134.591V260H136.591ZM135.591 181H128.091V183H135.591V181ZM129.091 182V179H127.091V182H129.091ZM128.091 180H197.091V178H128.091V180ZM196.091 179V204.5H198.091V179H196.091ZM197.091 203.5H194.091V205.5H197.091V203.5ZM195.091 204.5C195.091 195.548 193.297 189.186 189.331 185.882L188.051 187.418C191.286 190.114 193.091 195.652 193.091 204.5H195.091ZM189.354 185.901C185.581 182.56 179.58 181 171.591 181V183C179.403 183 184.801 184.54 188.028 187.399L189.354 185.901ZM171.591 181H158.091V183H171.591V181ZM157.091 182V218H159.091V182H157.091ZM158.091 219H164.091V217H158.091V219ZM164.091 219C167.725 219 170.734 218.774 173.098 218.306C175.434 217.844 177.272 217.122 178.429 216.026L177.054 214.574C176.31 215.278 174.924 215.906 172.71 216.344C170.523 216.776 167.658 217 164.091 217V219ZM178.429 216.026C179.56 214.955 180.342 213.413 180.846 211.505C181.35 209.594 181.591 207.251 181.591 204.5H179.591C179.591 207.149 179.357 209.306 178.912 210.995C178.465 212.687 177.823 213.845 177.054 214.574L178.429 216.026ZM180.591 205.5H183.591V203.5H180.591V205.5ZM182.591 204.5V234.5H184.591V204.5H182.591ZM183.591 233.5H180.591V235.5H183.591V233.5ZM181.591 234.5C181.591 231.652 181.351 229.247 180.847 227.311C180.344 225.381 179.559 223.835 178.408 222.805L177.074 224.295C177.823 224.965 178.463 226.094 178.911 227.814C179.357 229.528 179.591 231.748 179.591 234.5H181.591ZM178.408 222.805C177.251 221.769 175.416 221.09 173.087 220.655C170.728 220.214 167.723 220 164.091 220V222C167.66 222 170.529 222.211 172.72 222.62C174.941 223.035 176.332 223.631 177.074 224.295L178.408 222.805ZM164.091 220H158.091V222H164.091V220ZM157.091 221V260H159.091V221H157.091ZM158.091 261H173.091V259H158.091V261Z" fill="#5656B1"/>
</g>
<g filter="url(#filter4_d)">
<path d="M101.981 244.336C91.4481 244.469 82.9332 242.177 76.4357 237.458C70.0716 232.739 66.797 225.846 66.612 216.781C66.5114 211.849 67.9575 207.564 70.9505 203.926C74.074 200.153 77.8356 198.239 82.2353 198.183C86.6349 198.128 90.1299 199.484 92.7202 202.251C95.441 204.884 96.8436 208.266 96.928 212.398C97.0613 218.93 93.6833 223.307 86.7941 225.527C85.9996 225.804 84.8732 226.151 83.4148 226.57C82.087 226.853 81.0925 227.132 80.4313 227.408C78.7063 227.829 77.8655 229.107 77.9091 231.24C77.9526 233.372 79.7266 235.35 83.2311 237.173C86.8689 238.993 90.8876 239.876 95.2873 239.821C111.153 239.62 118.849 227.922 118.375 204.727L116.975 136.142L106.976 136.268L106.895 132.269L156.891 131.637L156.972 135.637L146.973 135.763L148.336 202.549C148.6 215.48 144.874 225.66 137.157 233.092C129.438 240.389 117.713 244.138 101.981 244.336Z" fill="#C4C4C4"/>
<path d="M101.981 244.336C91.4481 244.469 82.9332 242.177 76.4357 237.458C70.0716 232.739 66.797 225.846 66.612 216.781C66.5114 211.849 67.9575 207.564 70.9505 203.926C74.074 200.153 77.8356 198.239 82.2353 198.183C86.6349 198.128 90.1299 199.484 92.7202 202.251C95.441 204.884 96.8436 208.266 96.928 212.398C97.0613 218.93 93.6833 223.307 86.7941 225.527C85.9996 225.804 84.8732 226.151 83.4148 226.57C82.087 226.853 81.0925 227.132 80.4313 227.408C78.7063 227.829 77.8655 229.107 77.9091 231.24C77.9526 233.372 79.7266 235.35 83.2311 237.173C86.8689 238.993 90.8876 239.876 95.2873 239.821C111.153 239.62 118.849 227.922 118.375 204.727L116.975 136.142L106.976 136.268L106.895 132.269L156.891 131.637L156.972 135.637L146.973 135.763L148.336 202.549C148.6 215.48 144.874 225.66 137.157 233.092C129.438 240.389 117.713 244.138 101.981 244.336Z" fill="#3BD0C2" fill-opacity="0.99"/>
<path d="M76.4357 237.458L75.8439 238.26L75.8521 238.266L76.4357 237.458ZM70.9505 203.926L70.178 203.285L70.176 203.287L70.9505 203.926ZM92.7202 202.251L91.9924 202.931L92.0095 202.95L92.0275 202.967L92.7202 202.251ZM86.7941 225.527L86.4805 224.575L86.4695 224.579L86.4585 224.583L86.7941 225.527ZM83.4148 226.57L83.6309 227.548L83.6645 227.541L83.6976 227.531L83.4148 226.57ZM80.4313 227.408L80.6761 228.379L80.7507 228.361L80.8216 228.331L80.4313 227.408ZM83.2311 237.173L82.775 238.059L82.7819 238.063L82.7889 238.066L83.2311 237.173ZM116.975 136.142L117.975 136.129L117.955 135.129L116.955 135.142L116.975 136.142ZM106.976 136.268L105.976 136.28L105.997 137.28L106.997 137.268L106.976 136.268ZM106.895 132.269L106.874 131.269L105.874 131.282L105.895 132.281L106.895 132.269ZM156.891 131.637L157.89 131.625L157.87 130.625L156.87 130.638L156.891 131.637ZM156.972 135.637L156.993 136.636L157.993 136.624L157.972 135.624L156.972 135.637ZM146.973 135.763L146.953 134.763L145.953 134.776L145.973 135.775L146.973 135.763ZM137.157 233.092L137.848 233.821L137.854 233.814L137.157 233.092ZM101.96 243.336C91.5757 243.468 83.2927 241.206 77.0194 236.651L75.8521 238.266C82.5737 243.147 91.3205 245.471 102.001 245.336L101.96 243.336ZM77.0276 236.657C70.9538 232.153 67.7917 225.575 67.6119 216.769L65.6121 216.794C65.8024 226.118 69.1894 233.325 75.8439 238.26L77.0276 236.657ZM67.6119 216.769C67.5159 212.063 68.8893 208.012 71.7249 204.565L70.176 203.287C67.0258 207.117 65.5068 211.635 65.6121 216.794L67.6119 216.769ZM71.7229 204.567C74.6855 200.989 78.1843 199.235 82.2557 199.183L82.2149 197.184C77.4869 197.243 73.4625 199.318 70.178 203.285L71.7229 204.567ZM82.2557 199.183C86.424 199.13 89.6285 200.406 91.9924 202.931L93.4479 201.571C90.6312 198.562 86.8458 197.125 82.2149 197.184L82.2557 199.183ZM92.0275 202.967C94.5378 205.396 95.8486 208.516 95.9281 212.411L97.9279 212.386C97.8387 208.016 96.3443 204.371 93.4128 201.535L92.0275 202.967ZM95.9281 212.411C95.9909 215.492 95.2281 217.986 93.7009 219.965C92.1666 221.953 89.7925 223.508 86.4805 224.575L87.1077 226.479C90.685 225.326 93.4444 223.583 95.2881 221.194C97.1388 218.797 97.9983 215.837 97.9279 212.386L95.9281 212.411ZM86.4585 224.583C85.69 224.85 84.5843 225.192 83.132 225.609L83.6976 227.531C85.1621 227.111 86.3092 226.757 87.1297 226.472L86.4585 224.583ZM83.1987 225.592C81.854 225.879 80.788 226.173 80.041 226.484L80.8216 228.331C81.397 228.092 82.32 227.828 83.6309 227.548L83.1987 225.592ZM80.1866 226.436C79.1221 226.696 78.2497 227.247 77.6702 228.128C77.1041 228.988 76.8848 230.06 76.9092 231.252L78.909 231.227C78.8898 230.286 79.0692 229.653 79.3438 229.236C79.605 228.839 80.0155 228.54 80.6761 228.379L80.1866 226.436ZM76.9092 231.252C76.9649 233.984 79.2203 236.21 82.775 238.059L83.6872 236.286C80.233 234.49 78.9403 232.761 78.909 231.227L76.9092 231.252ZM82.7889 238.066C86.5825 239.965 90.7618 240.878 95.3077 240.82L95.2669 238.821C91.0135 238.874 87.1554 238.022 83.6733 236.279L82.7889 238.066ZM95.3077 240.82C103.521 240.717 109.741 237.614 113.795 231.451C117.804 225.357 119.614 216.395 119.375 204.715L117.375 204.74C117.61 216.255 115.808 224.739 112.121 230.343C108.48 235.878 102.919 238.724 95.2669 238.821L95.3077 240.82ZM119.375 204.715L117.975 136.129L115.975 136.154L117.375 204.74L119.375 204.715ZM116.955 135.142L106.956 135.268L106.997 137.268L116.996 137.141L116.955 135.142ZM107.976 136.255L107.894 132.256L105.895 132.281L105.976 136.28L107.976 136.255ZM106.915 133.268L156.911 132.637L156.87 130.638L106.874 131.269L106.915 133.268ZM155.891 131.65L155.972 135.649L157.972 135.624L157.89 131.625L155.891 131.65ZM156.952 134.637L146.953 134.763L146.993 136.763L156.993 136.636L156.952 134.637ZM145.973 135.775L147.336 202.562L149.336 202.536L147.973 135.75L145.973 135.775ZM147.336 202.562C147.596 215.276 143.938 225.168 136.461 232.369L137.854 233.814C145.809 226.153 149.604 215.683 149.336 202.536L147.336 202.562ZM136.467 232.363C128.999 239.424 117.559 243.14 101.96 243.336L102.001 245.336C117.866 245.136 129.878 241.355 137.848 233.821L136.467 232.363Z" fill="black"/>
</g>
<defs>
<filter id="filter0_i" x="4" y="1.52588e-05" width="295" height="339" filterUnits="userSpaceOnUse" color-interpolation-filters="sRGB">
<feFlood flood-opacity="0" result="BackgroundImageFix"/>
<feBlend mode="normal" in="SourceGraphic" in2="BackgroundImageFix" result="shape"/>
<feColorMatrix in="SourceAlpha" type="matrix" values="0 0 0 0 0 0 0 0 0 0 0 0 0 0 0 0 0 0 127 0" result="hardAlpha"/>
<feOffset dy="4"/>
<feGaussianBlur stdDeviation="2"/>
<feComposite in2="hardAlpha" operator="arithmetic" k2="-1" k3="1"/>
<feColorMatrix type="matrix" values="0 0 0 0 0 0 0 0 0 0 0 0 0 0 0 0 0 0 0.25 0"/>
<feBlend mode="normal" in2="shape" result="effect1_innerShadow"/>
</filter>
<filter id="filter1_dd" x="0" y="1.52588e-05" width="303" height="343" filterUnits="userSpaceOnUse" color-interpolation-filters="sRGB">
<feFlood flood-opacity="0" result="BackgroundImageFix"/>
<feColorMatrix in="SourceAlpha" type="matrix" values="0 0 0 0 0 0 0 0 0 0 0 0 0 0 0 0 0 0 127 0" result="hardAlpha"/>
<feOffset dy="4"/>
<feGaussianBlur stdDeviation="2"/>
<feComposite in2="hardAlpha" operator="out"/>
<feColorMatrix type="matrix" values="0 0 0 0 0 0 0 0 0 0 0 0 0 0 0 0 0 0 0.25 0"/>
<feBlend mode="normal" in2="BackgroundImageFix" result="effect1_dropShadow"/>
<feColorMatrix in="SourceAlpha" type="matrix" values="0 0 0 0 0 0 0 0 0 0 0 0 0 0 0 0 0 0 127 0" result="hardAlpha"/>
<feOffset dy="4"/>
<feGaussianBlur stdDeviation="2"/>
<feComposite in2="hardAlpha" operator="out"/>
<feColorMatrix type="matrix" values="0 0 0 0 0 0 0 0 0 0 0 0 0 0 0 0 0 0 0.25 0"/>
<feBlend mode="normal" in2="effect1_dropShadow" result="effect2_dropShadow"/>
<feBlend mode="normal" in="SourceGraphic" in2="effect2_dropShadow" result="shape"/>
</filter>
<filter id="filter2_d" x="186.259" y="230.016" width="53.8889" height="66.5" filterUnits="userSpaceOnUse" color-interpolation-filters="sRGB">
<feFlood flood-opacity="0" result="BackgroundImageFix"/>
<feColorMatrix in="SourceAlpha" type="matrix" values="0 0 0 0 0 0 0 0 0 0 0 0 0 0 0 0 0 0 127 0" result="hardAlpha"/>
<feOffset dy="4"/>
<feGaussianBlur stdDeviation="2"/>
<feComposite in2="hardAlpha" operator="out"/>
<feColorMatrix type="matrix" values="0 0 0 0 0 0 0 0 0 0 0 0 0 0 0 0 0 0 0.25 0"/>
<feBlend mode="normal" in2="BackgroundImageFix" result="effect1_dropShadow"/>
<feBlend mode="normal" in="SourceGraphic" in2="effect1_dropShadow" result="shape"/>
</filter>
<filter id="filter3_d" x="124.091" y="179" width="78.5" height="92" filterUnits="userSpaceOnUse" color-interpolation-filters="sRGB">
<feFlood flood-opacity="0" result="BackgroundImageFix"/>
<feColorMatrix in="SourceAlpha" type="matrix" values="0 0 0 0 0 0 0 0 0 0 0 0 0 0 0 0 0 0 127 0" result="hardAlpha"/>
<feOffset dy="4"/>
<feGaussianBlur stdDeviation="2"/>
<feComposite in2="hardAlpha" operator="out"/>
<feColorMatrix type="matrix" values="0 0 0 0 0 0 0 0 0 0 0 0 0 0 0 0 0 0 0.25 0"/>
<feBlend mode="normal" in2="BackgroundImageFix" result="effect1_dropShadow"/>
<feBlend mode="normal" in="SourceGraphic" in2="effect1_dropShadow" result="shape"/>
</filter>
<filter id="filter4_d" x="62.6071" y="131.637" width="98.3651" height="120.704" filterUnits="userSpaceOnUse" color-interpolation-filters="sRGB">
<feFlood flood-opacity="0" result="BackgroundImageFix"/>
<feColorMatrix in="SourceAlpha" type="matrix" values="0 0 0 0 0 0 0 0 0 0 0 0 0 0 0 0 0 0 127 0" result="hardAlpha"/>
<feOffset dy="4"/>
<feGaussianBlur stdDeviation="2"/>
<feComposite in2="hardAlpha" operator="out"/>
<feColorMatrix type="matrix" values="0 0 0 0 0 0 0 0 0 0 0 0 0 0 0 0 0 0 0.25 0"/>
<feBlend mode="normal" in2="BackgroundImageFix" result="effect1_dropShadow"/>
<feBlend mode="normal" in="SourceGraphic" in2="effect1_dropShadow" result="shape"/>
</filter>
</defs>
</svg>
