<svg width="394" height="416" viewBox="0 0 394 416" fill="none" xmlns="http://www.w3.org/2000/svg">
<g filter="url(#filter0_d)">
<path d="M282.875 34.6296L282.878 34.6287C289.182 32.3951 293.241 29.8431 295.931 25.8698C298.631 21.8795 299.998 16.387 300.747 8.15692C300.747 8.1562 300.747 8.15546 300.747 8.15474L301.347 0.958481L301.385 0.500008H301.845H305.845H309.845H310.376L310.344 1.03044L309.844 9.23044L309.844 9.23412C309.038 21.0183 305.405 29.8592 298.678 35.8726C297.245 37.1549 296.225 38.0984 295.659 38.7718C295.395 39.086 295.274 39.2911 295.232 39.409C295.339 39.4513 295.561 39.4967 295.967 39.504C296.415 39.512 297.014 39.474 297.785 39.3904C299.325 39.2234 301.485 38.8822 304.363 38.4067L304.365 38.4064C313.29 36.9685 319.945 33.7313 324.372 28.7673C328.795 23.8064 331.045 17.0613 331.045 8.50001V1.00001V0.500008H331.545H335.545H339.545H340.045V1.00001V6.90001C340.045 19.7916 336.717 29.2379 329.493 36.2586L329.493 36.2588C324.323 41.2772 318.961 44.3465 310.057 46.1525C301.188 47.9513 288.791 48.5 269.545 48.5C231.814 48.5 221.007 50.518 211.069 58.881C209.044 60.6172 207.082 63.4965 205.537 66.8588C203.994 70.2158 202.886 74.0117 202.542 77.5484L202.542 77.5507C202.51 77.8682 202.479 78.1764 202.448 78.4755C202.222 80.7125 202.046 82.4429 201.847 83.771C201.624 85.2622 201.36 86.3297 200.908 87.0628C200.422 87.8491 199.746 88.2111 198.856 88.3703C198.108 88.5042 197.157 88.5025 195.992 88.5005C195.847 88.5003 195.697 88.5 195.545 88.5H190.645H190.081L190.148 87.9398L190.548 84.6416C190.548 84.6413 190.548 84.641 190.548 84.6407C190.747 82.951 191.146 78.3624 191.446 74.6605C192.459 61.601 199.951 49.8399 211.217 44.1548C215.299 42.0385 218.225 40.8167 223.541 39.9688C228.824 39.126 236.479 38.6502 250.021 38.0006C272.756 36.8989 277.963 36.3979 282.875 34.6296Z" fill="#6ED8BE" stroke="black"/>
<path d="M180.559 263.375L178.502 259.432C178.502 259.432 178.502 259.432 178.502 259.432C177.438 257.405 176.812 255.901 176.463 253.69C176.119 251.508 176.045 248.643 176.045 243.9V233.5H161.045H145.445H144.943L144.945 232.998L145.045 204.198L145.143 175.996L77.6411 175.5L76.6907 175.493C43.9724 175.248 27.1999 175.122 18.2643 174.8C13.7596 174.637 11.2142 174.424 9.61336 174.113C8.80661 173.956 8.22443 173.771 7.74412 173.547C7.26442 173.324 6.9057 173.071 6.54899 172.803C4.52261 171.347 2.84767 169.202 1.7796 166.925C0.714801 164.654 0.227428 162.194 0.653626 160.106C0.819193 159.176 1.32458 157.997 1.95548 156.836C2.59356 155.662 3.3841 154.463 4.15236 153.49L4.15783 153.483L4.16354 153.477L6.96354 150.177L7.11246 150.001L7.34263 150L76.4426 149.7H76.4433L145.045 149.501V120.5V91V90.5H145.545H191.545H237.545H238.041L238.045 90.9966L238.245 120.195L238.245 120.197L238.54 149.004L306.548 149.5C332.048 149.7 349.302 149.9 360.382 150.163C365.921 150.294 369.922 150.441 372.642 150.612C374.001 150.697 375.047 150.789 375.809 150.889C376.189 150.939 376.506 150.992 376.759 151.049C377 151.104 377.224 151.171 377.39 151.264L377.393 151.266C380.355 152.959 382.243 156.259 382.874 159.761C383.505 163.265 382.897 167.07 380.738 169.809C380.657 169.912 380.578 170.013 380.5 170.113C379.527 171.359 378.716 172.398 377.098 173.173C375.381 173.995 372.785 174.511 368.131 174.849C359.139 175.501 342.191 175.501 308.356 175.5L304.545 175.5H238.045V204V233V233.5H237.545H222.545H208.045V243.8C208.045 248.544 207.971 251.456 207.639 253.662C207.304 255.895 206.705 257.399 205.687 259.333L205.684 259.338C205.017 260.57 204.147 261.824 203.263 262.862C202.39 263.886 201.462 264.751 200.668 265.147C192.222 269.37 187.672 270.787 178.919 272.095L178.917 272.095C173.418 272.895 169.631 273.64 167.225 274.425C166.019 274.819 165.2 275.211 164.691 275.598C164.191 275.979 164.045 276.31 164.045 276.6C164.045 276.817 164.094 276.989 164.192 277.138C164.293 277.292 164.468 277.456 164.771 277.616C165.393 277.945 166.452 278.21 168.16 278.39C171.558 278.749 177.274 278.75 186.531 278.5L186.532 278.5C203.779 278.05 214.495 277.9 221.738 278.163C228.987 278.426 232.795 279.105 236.213 280.329L236.216 280.33C240.892 282.033 244.141 284.541 246.023 287.437C247.909 290.339 248.401 293.601 247.604 296.748C246.014 303.032 239.344 308.724 228.725 310.394C225.107 310.996 215.692 312.098 207.902 312.997L207.896 312.997C200.101 313.797 191.047 315.393 187.803 316.474C184.47 317.585 181.153 318.246 178.653 318.411C177.409 318.494 176.333 318.457 175.549 318.273C175.16 318.181 174.802 318.045 174.531 317.835C174.245 317.614 174.045 317.299 174.045 316.9C174.045 316.496 174.193 316.076 174.411 315.673C174.632 315.263 174.946 314.831 175.323 314.391C176.079 313.512 177.13 312.56 178.328 311.641C180.719 309.807 183.768 308.049 186.388 307.225C187.887 306.71 190.623 306.155 193.781 305.668C196.955 305.179 200.592 304.753 203.905 304.502C216.156 303.502 224.265 302.454 229.567 301.054C234.877 299.652 237.226 297.934 238.182 295.71C238.742 294.285 238.918 293.608 238.794 293.045C238.67 292.481 238.222 291.933 237.1 290.862L237.096 290.858C235.232 289.041 231.867 287.872 225.392 287.348C218.94 286.826 209.519 286.949 195.669 287.599C181.978 288.299 173.562 288.477 167.951 287.847C165.139 287.531 163.007 287.01 161.257 286.235C159.5 285.459 158.15 284.438 156.889 283.152C155.645 281.907 154.844 280.988 154.451 279.937C154.053 278.871 154.099 277.736 154.351 276.123L154.351 276.121C154.926 272.517 156.769 269.815 160.182 267.842C163.561 265.889 168.47 264.655 175.189 263.903L175.196 263.902L180.559 263.375Z" fill="#6ED8BE" stroke="black"/>
<path d="M140.045 125.3V125.879L139.472 125.795L135.376 125.195C131.469 124.673 128.03 122.309 125.801 119.191C123.572 116.074 122.517 112.15 123.46 108.479C123.939 106.514 125.35 104.316 127.055 102.496C128.759 100.677 130.834 99.1545 132.707 98.6193C132.965 98.5456 133.215 98.4733 133.457 98.4033C134.823 98.0082 135.934 97.6869 136.796 97.6024C137.315 97.5515 137.803 97.5782 138.235 97.7604C138.682 97.9488 139.016 98.281 139.261 98.7397C139.499 99.1855 139.655 99.7559 139.764 100.448C139.874 101.144 139.941 101.994 139.982 103.018C140.05 104.726 140.048 106.959 140.046 109.829C140.045 110.394 140.045 110.984 140.045 111.6V125.3Z" fill="#6ED8BE" stroke="black"/>
<path d="M242.627 125.793L242.045 125.89V125.3V111.6C242.045 111.188 242.045 110.788 242.045 110.398C242.043 107.199 242.042 104.735 242.127 102.882C242.174 101.842 242.248 100.978 242.368 100.275C242.487 99.5765 242.656 99.0019 242.913 98.5613C243.178 98.105 243.539 97.7892 244.014 97.6382C244.47 97.4935 244.977 97.517 245.511 97.6238C246.457 97.8126 247.681 98.3075 249.205 98.9235C249.377 98.993 249.552 99.064 249.732 99.1362L249.732 99.1365C262.796 104.424 260.829 122.811 246.826 125.093C246.826 125.093 246.826 125.093 246.825 125.094L242.627 125.793Z" fill="#6ED8BE" stroke="black"/>
</g>
<g filter="url(#filter1_d)">
<path d="M142.259 373.016H140.259V349.716H142.259C142.259 355.983 144.492 361.316 148.959 365.716C153.492 370.116 158.992 372.316 165.459 372.316C168.126 372.316 170.259 371.549 171.859 370.016C173.526 368.416 174.359 366.316 174.359 363.716C174.359 360.783 172.459 358.283 168.659 356.216C166.592 355.149 163.026 353.483 157.959 351.216C152.892 348.883 149.326 346.916 147.259 345.316C143.126 342.116 141.292 337.883 141.759 332.616C142.292 327.349 144.292 323.283 147.759 320.416C151.226 317.483 155.126 316.016 159.459 316.016C163.859 316.016 167.792 316.616 171.259 317.816C174.792 318.949 176.792 319.516 177.259 319.516C178.592 319.516 179.259 318.349 179.259 316.016H181.259V334.316H179.259C179.259 329.516 177.492 325.616 173.959 322.616C170.426 319.549 165.892 318.016 160.359 318.016C157.892 318.016 155.959 318.749 154.559 320.216C153.159 321.616 152.459 323.183 152.459 324.916C152.459 326.649 152.692 327.983 153.159 328.916C153.626 329.849 154.426 330.716 155.559 331.516C156.759 332.249 157.792 332.849 158.659 333.316C159.526 333.783 160.892 334.416 162.759 335.216C164.692 336.016 166.026 336.583 166.759 336.916C170.426 338.583 172.592 339.583 173.259 339.916C173.926 340.183 174.892 340.649 176.159 341.316C177.426 341.983 178.359 342.583 178.959 343.116C179.626 343.649 180.459 344.316 181.459 345.116C182.459 345.916 183.192 346.749 183.659 347.616C184.126 348.416 184.592 349.349 185.059 350.416C185.992 352.549 186.326 355.049 186.059 357.916C185.526 363.316 183.492 367.449 179.959 370.316C176.492 373.116 171.792 374.516 165.859 374.516C160.526 374.516 155.226 373.149 149.959 370.416C148.159 369.483 146.826 369.016 145.959 369.016C143.492 369.016 142.259 370.349 142.259 373.016Z" fill="#A6D0CC"/>
<path d="M142.259 373.016V374.016H143.259V373.016H142.259ZM140.259 373.016H139.259V374.016H140.259V373.016ZM140.259 349.716V348.716H139.259V349.716H140.259ZM142.259 349.716H143.259V348.716H142.259V349.716ZM148.959 365.716L148.257 366.428L148.263 366.434L148.959 365.716ZM171.859 370.016L172.551 370.738L172.552 370.737L171.859 370.016ZM168.659 356.216L169.137 355.338L169.127 355.332L169.118 355.327L168.659 356.216ZM157.959 351.216L157.541 352.124L157.551 352.129L157.959 351.216ZM147.259 345.316L146.647 346.107L147.259 345.316ZM141.759 332.616L140.764 332.515L140.763 332.528L141.759 332.616ZM147.759 320.416L148.396 321.187L148.405 321.179L147.759 320.416ZM171.259 317.816L170.932 318.761L170.943 318.765L170.954 318.768L171.259 317.816ZM179.259 316.016V315.016H178.259V316.016H179.259ZM181.259 316.016H182.259V315.016H181.259V316.016ZM181.259 334.316V335.316H182.259V334.316H181.259ZM179.259 334.316H178.259V335.316H179.259V334.316ZM173.959 322.616L173.304 323.371L173.312 323.378L173.959 322.616ZM154.559 320.216L155.266 320.923L155.274 320.915L155.282 320.907L154.559 320.216ZM155.559 331.516L154.982 332.333L155.009 332.352L155.038 332.369L155.559 331.516ZM158.659 333.316L159.133 332.436L158.659 333.316ZM162.759 335.216L162.365 336.135L162.377 336.14L162.759 335.216ZM166.759 336.916L167.173 336.006L166.759 336.916ZM173.259 339.916L172.812 340.81L172.849 340.829L172.888 340.845L173.259 339.916ZM176.159 341.316L175.693 342.201L176.159 341.316ZM178.959 343.116L178.295 343.863L178.314 343.881L178.334 343.897L178.959 343.116ZM181.459 345.116L182.084 344.335L181.459 345.116ZM183.659 347.616L182.779 348.09L182.787 348.105L182.795 348.12L183.659 347.616ZM185.059 350.416L184.143 350.817V350.817L185.059 350.416ZM186.059 357.916L187.054 358.014L187.055 358.009L186.059 357.916ZM179.959 370.316L180.587 371.094L180.589 371.093L179.959 370.316ZM149.959 370.416L150.42 369.528L150.419 369.528L149.959 370.416ZM142.259 372.016H140.259V374.016H142.259V372.016ZM141.259 373.016V349.716H139.259V373.016H141.259ZM140.259 350.716H142.259V348.716H140.259V350.716ZM141.259 349.716C141.259 356.251 143.6 361.841 148.257 366.428L149.661 365.004C145.385 360.791 143.259 355.715 143.259 349.716H141.259ZM148.263 366.434C152.987 371.019 158.739 373.316 165.459 373.316V371.316C159.246 371.316 153.997 369.213 149.656 364.998L148.263 366.434ZM165.459 373.316C168.328 373.316 170.728 372.485 172.551 370.738L171.167 369.294C169.79 370.614 167.924 371.316 165.459 371.316V373.316ZM172.552 370.737C174.44 368.924 175.359 366.551 175.359 363.716H173.359C173.359 366.081 172.611 367.908 171.167 369.295L172.552 370.737ZM175.359 363.716C175.359 360.257 173.09 357.487 169.137 355.338L168.181 357.095C171.829 359.078 173.359 361.308 173.359 363.716H175.359ZM169.118 355.327C167.024 354.247 163.434 352.57 158.367 350.303L157.551 352.129C162.617 354.395 166.161 356.052 168.2 357.105L169.118 355.327ZM158.377 350.308C153.32 347.979 149.842 346.051 147.871 344.525L146.647 346.107C148.809 347.781 152.465 349.787 157.541 352.124L158.377 350.308ZM147.871 344.525C144.011 341.537 142.318 337.636 142.755 332.704L140.763 332.528C140.267 338.129 142.24 342.695 146.647 346.107L147.871 344.525ZM142.754 332.717C143.266 327.662 145.168 323.856 148.396 321.187L147.122 319.645C143.417 322.709 141.319 327.037 140.764 332.515L142.754 332.717ZM148.405 321.179C151.7 318.391 155.374 317.016 159.459 317.016V315.016C154.877 315.016 150.751 316.575 147.113 319.653L148.405 321.179ZM159.459 317.016C163.769 317.016 167.589 317.604 170.932 318.761L171.586 316.871C167.996 315.628 163.949 315.016 159.459 315.016V317.016ZM170.954 318.768C172.724 319.336 174.12 319.765 175.136 320.053C175.644 320.197 176.066 320.308 176.398 320.384C176.695 320.453 177.013 320.516 177.259 320.516V318.516C177.272 318.516 177.164 318.508 176.845 318.435C176.56 318.37 176.174 318.269 175.682 318.129C174.698 317.85 173.327 317.429 171.564 316.864L170.954 318.768ZM177.259 320.516C178.288 320.516 179.118 320.029 179.627 319.137C180.089 318.329 180.259 317.245 180.259 316.016H178.259C178.259 317.12 178.096 317.787 177.891 318.145C177.734 318.42 177.563 318.516 177.259 318.516V320.516ZM179.259 317.016H181.259V315.016H179.259V317.016ZM180.259 316.016V334.316H182.259V316.016H180.259ZM181.259 333.316H179.259V335.316H181.259V333.316ZM180.259 334.316C180.259 329.234 178.372 325.051 174.606 321.854L173.312 323.378C176.612 326.181 178.259 329.798 178.259 334.316H180.259ZM174.615 321.861C170.867 318.608 166.087 317.016 160.359 317.016V319.016C165.698 319.016 169.984 320.49 173.304 323.371L174.615 321.861ZM160.359 317.016C157.683 317.016 155.464 317.82 153.836 319.526L155.282 320.907C156.454 319.679 158.102 319.016 160.359 319.016V317.016ZM153.852 319.509C152.293 321.067 151.459 322.879 151.459 324.916H153.459C153.459 323.486 154.025 322.165 155.266 320.923L153.852 319.509ZM151.459 324.916C151.459 326.714 151.697 328.228 152.265 329.363L154.053 328.469C153.688 327.737 153.459 326.584 153.459 324.916H151.459ZM152.265 329.363C152.825 330.485 153.757 331.468 154.982 332.333L156.136 330.699C155.094 329.964 154.426 329.214 154.053 328.469L152.265 329.363ZM155.038 332.369C156.247 333.109 157.297 333.718 158.185 334.197L159.133 332.436C158.288 331.98 157.271 331.39 156.08 330.663L155.038 332.369ZM158.185 334.197C159.093 334.685 160.493 335.333 162.365 336.135L163.153 334.297C161.291 333.499 159.959 332.88 159.133 332.436L158.185 334.197ZM162.377 336.14C164.311 336.94 165.629 337.501 166.345 337.826L167.173 336.006C166.422 335.664 165.074 335.092 163.141 334.292L162.377 336.14ZM166.345 337.826C170.021 339.497 172.166 340.488 172.812 340.81L173.706 339.022C173.019 338.678 170.83 337.668 167.173 336.006L166.345 337.826ZM172.888 340.845C173.504 341.091 174.434 341.538 175.693 342.201L176.625 340.431C175.351 339.761 174.347 339.274 173.63 338.988L172.888 340.845ZM175.693 342.201C176.935 342.854 177.785 343.41 178.295 343.863L179.623 342.369C178.933 341.755 177.917 341.111 176.625 340.431L175.693 342.201ZM178.334 343.897C179.001 344.43 179.834 345.097 180.834 345.897L182.084 344.335C181.084 343.535 180.25 342.869 179.584 342.335L178.334 343.897ZM180.834 345.897C181.759 346.637 182.392 347.372 182.779 348.09L184.54 347.142C183.993 346.127 183.159 345.195 182.084 344.335L180.834 345.897ZM182.795 348.12C183.238 348.879 183.688 349.777 184.143 350.817L185.975 350.015C185.497 348.922 185.013 347.953 184.523 347.112L182.795 348.12ZM184.143 350.817C184.994 352.763 185.318 355.086 185.063 357.823L187.055 358.009C187.333 355.013 186.991 352.336 185.975 350.015L184.143 350.817ZM185.064 357.818C184.551 363.007 182.616 366.873 179.329 369.539L180.589 371.093C184.369 368.026 186.5 363.625 187.054 358.014L185.064 357.818ZM179.331 369.538C176.093 372.153 171.64 373.516 165.859 373.516V375.516C171.945 375.516 176.892 374.079 180.587 371.094L179.331 369.538ZM165.859 373.516C160.703 373.516 155.56 372.196 150.42 369.528L149.498 371.304C154.891 374.102 160.348 375.516 165.859 375.516V373.516ZM150.419 369.528C148.619 368.595 147.093 368.016 145.959 368.016V370.016C146.559 370.016 147.699 370.37 149.499 371.304L150.419 369.528ZM145.959 368.016C144.551 368.016 143.316 368.4 142.45 369.337C141.597 370.259 141.259 371.547 141.259 373.016H143.259C143.259 371.818 143.538 371.106 143.918 370.695C144.285 370.298 144.901 370.016 145.959 370.016V368.016Z" fill="black"/>
</g>
<g filter="url(#filter2_d)">
<path d="M123.091 346C138.091 346 145.591 337.5 145.591 320.5H148.591V349H78.0912V346H85.5912V268H78.0912V265H147.091V290.5H144.091C144.091 281.6 142.291 275.65 138.691 272.65C135.191 269.55 129.491 268 121.591 268H108.091V304H114.091C121.291 304 125.841 303.1 127.741 301.3C129.641 299.5 130.591 295.9 130.591 290.5H133.591V320.5H130.591C130.591 314.9 129.641 311.25 127.741 309.55C125.841 307.85 121.291 307 114.091 307H108.091V346H123.091Z" fill="#06FCE5"/>
<path d="M145.591 320.5V319.5H144.591V320.5H145.591ZM148.591 320.5H149.591V319.5H148.591V320.5ZM148.591 349V350H149.591V349H148.591ZM78.0912 349H77.0912V350H78.0912V349ZM78.0912 346V345H77.0912V346H78.0912ZM85.5912 346V347H86.5912V346H85.5912ZM85.5912 268H86.5912V267H85.5912V268ZM78.0912 268H77.0912V269H78.0912V268ZM78.0912 265V264H77.0912V265H78.0912ZM147.091 265H148.091V264H147.091V265ZM147.091 290.5V291.5H148.091V290.5H147.091ZM144.091 290.5H143.091V291.5H144.091V290.5ZM138.691 272.65L138.028 273.399L138.039 273.409L138.051 273.418L138.691 272.65ZM108.091 268V267H107.091V268H108.091ZM108.091 304H107.091V305H108.091V304ZM130.591 290.5V289.5H129.591V290.5H130.591ZM133.591 290.5H134.591V289.5H133.591V290.5ZM133.591 320.5V321.5H134.591V320.5H133.591ZM130.591 320.5H129.591V321.5H130.591V320.5ZM127.741 309.55L128.408 308.805L127.741 309.55ZM108.091 307V306H107.091V307H108.091ZM108.091 346H107.091V347H108.091V346ZM123.091 347C130.78 347 136.72 344.816 140.716 340.287C144.691 335.781 146.591 329.125 146.591 320.5H144.591C144.591 328.875 142.741 334.969 139.216 338.963C135.713 342.934 130.402 345 123.091 345V347ZM145.591 321.5H148.591V319.5H145.591V321.5ZM147.591 320.5V349H149.591V320.5H147.591ZM148.591 348H78.0912V350H148.591V348ZM79.0912 349V346H77.0912V349H79.0912ZM78.0912 347H85.5912V345H78.0912V347ZM86.5912 346V268H84.5912V346H86.5912ZM85.5912 267H78.0912V269H85.5912V267ZM79.0912 268V265H77.0912V268H79.0912ZM78.0912 266H147.091V264H78.0912V266ZM146.091 265V290.5H148.091V265H146.091ZM147.091 289.5H144.091V291.5H147.091V289.5ZM145.091 290.5C145.091 281.548 143.297 275.186 139.331 271.882L138.051 273.418C141.286 276.114 143.091 281.652 143.091 290.5H145.091ZM139.354 271.901C135.581 268.56 129.58 267 121.591 267V269C129.403 269 134.801 270.54 138.028 273.399L139.354 271.901ZM121.591 267H108.091V269H121.591V267ZM107.091 268V304H109.091V268H107.091ZM108.091 305H114.091V303H108.091V305ZM114.091 305C117.725 305 120.734 304.774 123.098 304.306C125.434 303.844 127.272 303.122 128.429 302.026L127.054 300.574C126.31 301.278 124.924 301.906 122.71 302.344C120.523 302.776 117.658 303 114.091 303V305ZM128.429 302.026C129.56 300.955 130.342 299.413 130.846 297.505C131.35 295.594 131.591 293.251 131.591 290.5H129.591C129.591 293.149 129.357 295.306 128.912 296.995C128.465 298.687 127.823 299.845 127.054 300.574L128.429 302.026ZM130.591 291.5H133.591V289.5H130.591V291.5ZM132.591 290.5V320.5H134.591V290.5H132.591ZM133.591 319.5H130.591V321.5H133.591V319.5ZM131.591 320.5C131.591 317.652 131.351 315.247 130.847 313.311C130.344 311.381 129.559 309.835 128.408 308.805L127.074 310.295C127.823 310.965 128.463 312.094 128.911 313.814C129.357 315.528 129.591 317.748 129.591 320.5H131.591ZM128.408 308.805C127.251 307.769 125.416 307.09 123.087 306.655C120.728 306.214 117.723 306 114.091 306V308C117.66 308 120.529 308.211 122.72 308.62C124.941 309.035 126.332 309.631 127.074 310.295L128.408 308.805ZM114.091 306H108.091V308H114.091V306ZM107.091 307V346H109.091V307H107.091ZM108.091 347H123.091V345H108.091V347Z" fill="#5656B1"/>
</g>
<g filter="url(#filter3_d)">
<path d="M51.9806 330.336C41.4481 330.469 32.9332 328.177 26.4357 323.458C20.0716 318.739 16.797 311.846 16.612 302.781C16.5114 297.849 17.9575 293.564 20.9505 289.926C24.074 286.153 27.8356 284.239 32.2353 284.183C36.6349 284.128 40.1299 285.484 42.7202 288.251C45.441 290.884 46.8436 294.266 46.928 298.398C47.0613 304.93 43.6833 309.307 36.7941 311.527C35.9996 311.804 34.8732 312.151 33.4148 312.57C32.087 312.853 31.0925 313.132 30.4313 313.408C28.7063 313.829 27.8655 315.107 27.9091 317.24C27.9526 319.372 29.7266 321.35 33.2311 323.173C36.8689 324.993 40.8876 325.876 45.2873 325.821C61.1527 325.62 68.8487 313.922 68.3753 290.727L66.9754 222.142L56.9762 222.268L56.8946 218.269L106.891 217.637L106.972 221.637L96.973 221.763L98.3361 288.549C98.6001 301.48 94.8738 311.66 87.1574 319.092C79.4383 326.389 67.7127 330.138 51.9806 330.336Z" fill="#C4C4C4"/>
<path d="M51.9806 330.336C41.4481 330.469 32.9332 328.177 26.4357 323.458C20.0716 318.739 16.797 311.846 16.612 302.781C16.5114 297.849 17.9575 293.564 20.9505 289.926C24.074 286.153 27.8356 284.239 32.2353 284.183C36.6349 284.128 40.1299 285.484 42.7202 288.251C45.441 290.884 46.8436 294.266 46.928 298.398C47.0613 304.93 43.6833 309.307 36.7941 311.527C35.9996 311.804 34.8732 312.151 33.4148 312.57C32.087 312.853 31.0925 313.132 30.4313 313.408C28.7063 313.829 27.8655 315.107 27.9091 317.24C27.9526 319.372 29.7266 321.35 33.2311 323.173C36.8689 324.993 40.8876 325.876 45.2873 325.821C61.1527 325.62 68.8487 313.922 68.3753 290.727L66.9754 222.142L56.9762 222.268L56.8946 218.269L106.891 217.637L106.972 221.637L96.973 221.763L98.3361 288.549C98.6001 301.48 94.8738 311.66 87.1574 319.092C79.4383 326.389 67.7127 330.138 51.9806 330.336Z" fill="#3BD0C2" fill-opacity="0.99"/>
<path d="M26.4357 323.458L25.8439 324.26L25.8521 324.266L26.4357 323.458ZM20.9505 289.926L20.178 289.285L20.176 289.287L20.9505 289.926ZM42.7202 288.251L41.9924 288.931L42.0095 288.95L42.0275 288.967L42.7202 288.251ZM36.7941 311.527L36.4805 310.575L36.4695 310.579L36.4585 310.583L36.7941 311.527ZM33.4148 312.57L33.6309 313.548L33.6645 313.541L33.6976 313.531L33.4148 312.57ZM30.4313 313.408L30.6761 314.379L30.7507 314.361L30.8216 314.331L30.4313 313.408ZM33.2311 323.173L32.775 324.059L32.7819 324.063L32.7889 324.066L33.2311 323.173ZM66.9754 222.142L67.9753 222.129L67.9549 221.129L66.955 221.142L66.9754 222.142ZM56.9762 222.268L55.9763 222.28L55.9967 223.28L56.9966 223.268L56.9762 222.268ZM56.8946 218.269L56.8742 217.269L55.8742 217.282L55.8946 218.281L56.8946 218.269ZM106.891 217.637L107.89 217.625L107.87 216.625L106.87 216.638L106.891 217.637ZM106.972 221.637L106.993 222.636L107.993 222.624L107.972 221.624L106.972 221.637ZM96.973 221.763L96.9526 220.763L95.9527 220.776L95.9731 221.775L96.973 221.763ZM87.1574 319.092L87.8476 319.821L87.8542 319.814L87.1574 319.092ZM51.9602 329.336C41.5757 329.468 33.2927 327.206 27.0194 322.651L25.8521 324.266C32.5737 329.147 41.3205 331.471 52.001 331.336L51.9602 329.336ZM27.0276 322.657C20.9538 318.153 17.7917 311.575 17.6119 302.769L15.6121 302.794C15.8024 312.118 19.1894 319.325 25.8439 324.26L27.0276 322.657ZM17.6119 302.769C17.5159 298.063 18.8893 294.012 21.7249 290.565L20.176 289.287C17.0258 293.117 15.5068 297.635 15.6121 302.794L17.6119 302.769ZM21.7229 290.567C24.6855 286.989 28.1843 285.235 32.2557 285.183L32.2149 283.184C27.4869 283.243 23.4625 285.318 20.178 289.285L21.7229 290.567ZM32.2557 285.183C36.424 285.13 39.6285 286.406 41.9924 288.931L43.4479 287.571C40.6312 284.562 36.8458 283.125 32.2149 283.184L32.2557 285.183ZM42.0275 288.967C44.5378 291.396 45.8486 294.516 45.9281 298.411L47.9279 298.386C47.8387 294.016 46.3443 290.371 43.4128 287.535L42.0275 288.967ZM45.9281 298.411C45.9909 301.492 45.2281 303.986 43.7009 305.965C42.1666 307.953 39.7925 309.508 36.4805 310.575L37.1077 312.479C40.685 311.326 43.4444 309.583 45.2881 307.194C47.1388 304.797 47.9983 301.837 47.9279 298.386L45.9281 298.411ZM36.4585 310.583C35.69 310.85 34.5843 311.192 33.132 311.609L33.6976 313.531C35.1621 313.111 36.3092 312.757 37.1297 312.472L36.4585 310.583ZM33.1987 311.592C31.854 311.879 30.788 312.173 30.041 312.484L30.8216 314.331C31.397 314.092 32.32 313.828 33.6309 313.548L33.1987 311.592ZM30.1866 312.436C29.1221 312.696 28.2497 313.247 27.6702 314.128C27.1041 314.988 26.8848 316.06 26.9092 317.252L28.909 317.227C28.8898 316.286 29.0692 315.653 29.3438 315.236C29.605 314.839 30.0155 314.54 30.6761 314.379L30.1866 312.436ZM26.9092 317.252C26.9649 319.984 29.2203 322.21 32.775 324.059L33.6872 322.286C30.233 320.49 28.9403 318.761 28.909 317.227L26.9092 317.252ZM32.7889 324.066C36.5825 325.965 40.7618 326.878 45.3077 326.82L45.2669 324.821C41.0135 324.874 37.1554 324.022 33.6733 322.279L32.7889 324.066ZM45.3077 326.82C53.5209 326.717 59.7408 323.614 63.7952 317.451C67.8043 311.357 69.6136 302.395 69.3752 290.715L67.3753 290.74C67.6104 302.255 65.8084 310.739 62.1215 316.343C58.4798 321.878 52.9191 324.724 45.2669 324.821L45.3077 326.82ZM69.3752 290.715L67.9753 222.129L65.9755 222.154L67.3753 290.74L69.3752 290.715ZM66.955 221.142L56.9558 221.268L56.9966 223.268L66.9958 223.141L66.955 221.142ZM57.9761 222.255L57.8945 218.256L55.8946 218.281L55.9763 222.28L57.9761 222.255ZM56.915 219.268L106.911 218.637L106.87 216.638L56.8742 217.269L56.915 219.268ZM105.891 217.65L105.972 221.649L107.972 221.624L107.89 217.625L105.891 217.65ZM106.952 220.637L96.9526 220.763L96.9934 222.763L106.993 222.636L106.952 220.637ZM95.9731 221.775L97.3362 288.562L99.336 288.536L97.9729 221.75L95.9731 221.775ZM97.3362 288.562C97.5957 301.276 93.9383 311.168 86.4607 318.369L87.8542 319.814C95.8094 312.153 99.6044 301.683 99.336 288.536L97.3362 288.562ZM86.4673 318.363C78.9987 325.424 67.559 329.14 51.9602 329.336L52.001 331.336C67.8664 331.136 79.8779 327.355 87.8476 319.821L86.4673 318.363Z" fill="black"/>
</g>
<defs>
<filter id="filter0_d" x="-0.00012207" y="0" width="393.61" height="328.953" filterUnits="userSpaceOnUse" color-interpolation-filters="sRGB">
<feFlood flood-opacity="0" result="BackgroundImageFix"/>
<feColorMatrix in="SourceAlpha" type="matrix" values="0 0 0 0 0 0 0 0 0 0 0 0 0 0 0 0 0 0 127 0" result="hardAlpha"/>
<feOffset dx="6" dy="6"/>
<feGaussianBlur stdDeviation="2"/>
<feComposite in2="hardAlpha" operator="out"/>
<feColorMatrix type="matrix" values="0 0 0 0 0 0 0 0 0 0 0 0 0 0 0 0 0 0 0.5 0"/>
<feBlend mode="normal" in2="BackgroundImageFix" result="effect1_dropShadow"/>
<feBlend mode="normal" in="SourceGraphic" in2="effect1_dropShadow" result="shape"/>
</filter>
<filter id="filter1_d" x="136.259" y="316.016" width="53.8889" height="66.5" filterUnits="userSpaceOnUse" color-interpolation-filters="sRGB">
<feFlood flood-opacity="0" result="BackgroundImageFix"/>
<feColorMatrix in="SourceAlpha" type="matrix" values="0 0 0 0 0 0 0 0 0 0 0 0 0 0 0 0 0 0 127 0" result="hardAlpha"/>
<feOffset dy="4"/>
<feGaussianBlur stdDeviation="2"/>
<feComposite in2="hardAlpha" operator="out"/>
<feColorMatrix type="matrix" values="0 0 0 0 0 0 0 0 0 0 0 0 0 0 0 0 0 0 0.25 0"/>
<feBlend mode="normal" in2="BackgroundImageFix" result="effect1_dropShadow"/>
<feBlend mode="normal" in="SourceGraphic" in2="effect1_dropShadow" result="shape"/>
</filter>
<filter id="filter2_d" x="74.0912" y="265" width="78.5" height="92" filterUnits="userSpaceOnUse" color-interpolation-filters="sRGB">
<feFlood flood-opacity="0" result="BackgroundImageFix"/>
<feColorMatrix in="SourceAlpha" type="matrix" values="0 0 0 0 0 0 0 0 0 0 0 0 0 0 0 0 0 0 127 0" result="hardAlpha"/>
<feOffset dy="4"/>
<feGaussianBlur stdDeviation="2"/>
<feComposite in2="hardAlpha" operator="out"/>
<feColorMatrix type="matrix" values="0 0 0 0 0 0 0 0 0 0 0 0 0 0 0 0 0 0 0.25 0"/>
<feBlend mode="normal" in2="BackgroundImageFix" result="effect1_dropShadow"/>
<feBlend mode="normal" in="SourceGraphic" in2="effect1_dropShadow" result="shape"/>
</filter>
<filter id="filter3_d" x="12.6071" y="217.637" width="98.3651" height="120.704" filterUnits="userSpaceOnUse" color-interpolation-filters="sRGB">
<feFlood flood-opacity="0" result="BackgroundImageFix"/>
<feColorMatrix in="SourceAlpha" type="matrix" values="0 0 0 0 0 0 0 0 0 0 0 0 0 0 0 0 0 0 127 0" result="hardAlpha"/>
<feOffset dy="4"/>
<feGaussianBlur stdDeviation="2"/>
<feComposite in2="hardAlpha" operator="out"/>
<feColorMatrix type="matrix" values="0 0 0 0 0 0 0 0 0 0 0 0 0 0 0 0 0 0 0.25 0"/>
<feBlend mode="normal" in2="BackgroundImageFix" result="effect1_dropShadow"/>
<feBlend mode="normal" in="SourceGraphic" in2="effect1_dropShadow" result="shape"/>
</filter>
</defs>
</svg>
