<svg width="248" height="239" viewBox="0 0 248 239" fill="none" xmlns="http://www.w3.org/2000/svg">
<g filter="url(#filter0_i)">
<g filter="url(#filter1_d)">
<ellipse cx="124" cy="115.5" rx="120" ry="115.5" fill="#95BEAD" fill-opacity="0.43" shape-rendering="crispEdges"/>
</g>
<g filter="url(#filter2_d)">
<path d="M155.259 182.016H153.259V158.716H155.259C155.259 164.983 157.492 170.316 161.959 174.716C166.492 179.116 171.992 181.316 178.459 181.316C181.126 181.316 183.259 180.549 184.859 179.016C186.526 177.416 187.359 175.316 187.359 172.716C187.359 169.783 185.459 167.283 181.659 165.216C179.592 164.149 176.026 162.483 170.959 160.216C165.892 157.883 162.326 155.916 160.259 154.316C156.126 151.116 154.292 146.883 154.759 141.616C155.292 136.349 157.292 132.283 160.759 129.416C164.226 126.483 168.126 125.016 172.459 125.016C176.859 125.016 180.792 125.616 184.259 126.816C187.792 127.949 189.792 128.516 190.259 128.516C191.592 128.516 192.259 127.349 192.259 125.016H194.259V143.316H192.259C192.259 138.516 190.492 134.616 186.959 131.616C183.426 128.549 178.892 127.016 173.359 127.016C170.892 127.016 168.959 127.749 167.559 129.216C166.159 130.616 165.459 132.183 165.459 133.916C165.459 135.649 165.692 136.983 166.159 137.916C166.626 138.849 167.426 139.716 168.559 140.516C169.759 141.249 170.792 141.849 171.659 142.316C172.526 142.783 173.892 143.416 175.759 144.216C177.692 145.016 179.026 145.583 179.759 145.916C183.426 147.583 185.592 148.583 186.259 148.916C186.926 149.183 187.892 149.649 189.159 150.316C190.426 150.983 191.359 151.583 191.959 152.116C192.626 152.649 193.459 153.316 194.459 154.116C195.459 154.916 196.192 155.749 196.659 156.616C197.126 157.416 197.592 158.349 198.059 159.416C198.992 161.549 199.326 164.049 199.059 166.916C198.526 172.316 196.492 176.449 192.959 179.316C189.492 182.116 184.792 183.516 178.859 183.516C173.526 183.516 168.226 182.149 162.959 179.416C161.159 178.483 159.826 178.016 158.959 178.016C156.492 178.016 155.259 179.349 155.259 182.016Z" fill="#A6D0CC"/>
<path d="M155.259 182.016V183.016H156.259V182.016H155.259ZM153.259 182.016H152.259V183.016H153.259V182.016ZM153.259 158.716V157.716H152.259V158.716H153.259ZM155.259 158.716H156.259V157.716H155.259V158.716ZM161.959 174.716L161.257 175.428L161.263 175.434L161.959 174.716ZM184.859 179.016L185.551 179.738L185.552 179.737L184.859 179.016ZM181.659 165.216L182.137 164.338L182.127 164.332L182.118 164.327L181.659 165.216ZM170.959 160.216L170.541 161.124L170.551 161.129L170.959 160.216ZM160.259 154.316L159.647 155.107L160.259 154.316ZM154.759 141.616L153.764 141.515L153.763 141.528L154.759 141.616ZM160.759 129.416L161.396 130.187L161.405 130.179L160.759 129.416ZM184.259 126.816L183.932 127.761L183.943 127.765L183.954 127.768L184.259 126.816ZM192.259 125.016V124.016H191.259V125.016H192.259ZM194.259 125.016H195.259V124.016H194.259V125.016ZM194.259 143.316V144.316H195.259V143.316H194.259ZM192.259 143.316H191.259V144.316H192.259V143.316ZM186.959 131.616L186.304 132.371L186.312 132.378L186.959 131.616ZM167.559 129.216L168.266 129.923L168.274 129.915L168.282 129.907L167.559 129.216ZM168.559 140.516L167.982 141.333L168.009 141.352L168.038 141.369L168.559 140.516ZM171.659 142.316L172.133 141.436L171.659 142.316ZM175.759 144.216L175.365 145.135L175.377 145.14L175.759 144.216ZM179.759 145.916L180.173 145.006L179.759 145.916ZM186.259 148.916L185.812 149.81L185.849 149.829L185.888 149.845L186.259 148.916ZM189.159 150.316L188.693 151.201L189.159 150.316ZM191.959 152.116L191.295 152.863L191.314 152.881L191.334 152.897L191.959 152.116ZM194.459 154.116L195.084 153.335L194.459 154.116ZM196.659 156.616L195.779 157.09L195.787 157.105L195.795 157.12L196.659 156.616ZM198.059 159.416L197.143 159.817V159.817L198.059 159.416ZM199.059 166.916L200.054 167.014L200.055 167.009L199.059 166.916ZM192.959 179.316L193.587 180.094L193.589 180.093L192.959 179.316ZM162.959 179.416L163.42 178.528L163.419 178.528L162.959 179.416ZM155.259 181.016H153.259V183.016H155.259V181.016ZM154.259 182.016V158.716H152.259V182.016H154.259ZM153.259 159.716H155.259V157.716H153.259V159.716ZM154.259 158.716C154.259 165.251 156.6 170.841 161.257 175.428L162.661 174.004C158.385 169.791 156.259 164.715 156.259 158.716H154.259ZM161.263 175.434C165.987 180.019 171.739 182.316 178.459 182.316V180.316C172.246 180.316 166.997 178.213 162.656 173.998L161.263 175.434ZM178.459 182.316C181.328 182.316 183.728 181.485 185.551 179.738L184.167 178.294C182.79 179.614 180.924 180.316 178.459 180.316V182.316ZM185.552 179.737C187.44 177.924 188.359 175.551 188.359 172.716H186.359C186.359 175.081 185.611 176.908 184.167 178.295L185.552 179.737ZM188.359 172.716C188.359 169.257 186.09 166.487 182.137 164.338L181.181 166.095C184.829 168.078 186.359 170.308 186.359 172.716H188.359ZM182.118 164.327C180.024 163.247 176.434 161.57 171.367 159.303L170.551 161.129C175.617 163.395 179.161 165.052 181.2 166.105L182.118 164.327ZM171.377 159.308C166.32 156.979 162.842 155.051 160.871 153.525L159.647 155.107C161.809 156.781 165.465 158.787 170.541 161.124L171.377 159.308ZM160.871 153.525C157.011 150.537 155.318 146.636 155.755 141.704L153.763 141.528C153.267 147.129 155.24 151.695 159.647 155.107L160.871 153.525ZM155.754 141.717C156.266 136.662 158.168 132.856 161.396 130.187L160.122 128.645C156.417 131.709 154.319 136.037 153.764 141.515L155.754 141.717ZM161.405 130.179C164.7 127.391 168.374 126.016 172.459 126.016V124.016C167.877 124.016 163.751 125.575 160.113 128.653L161.405 130.179ZM172.459 126.016C176.769 126.016 180.589 126.604 183.932 127.761L184.586 125.871C180.996 124.628 176.949 124.016 172.459 124.016V126.016ZM183.954 127.768C185.724 128.336 187.12 128.765 188.136 129.053C188.644 129.197 189.066 129.308 189.398 129.384C189.695 129.453 190.013 129.516 190.259 129.516V127.516C190.272 127.516 190.164 127.508 189.845 127.435C189.56 127.37 189.174 127.269 188.682 127.129C187.698 126.85 186.327 126.429 184.564 125.864L183.954 127.768ZM190.259 129.516C191.288 129.516 192.118 129.029 192.627 128.137C193.089 127.329 193.259 126.245 193.259 125.016H191.259C191.259 126.12 191.096 126.787 190.891 127.145C190.734 127.42 190.563 127.516 190.259 127.516V129.516ZM192.259 126.016H194.259V124.016H192.259V126.016ZM193.259 125.016V143.316H195.259V125.016H193.259ZM194.259 142.316H192.259V144.316H194.259V142.316ZM193.259 143.316C193.259 138.234 191.372 134.051 187.606 130.854L186.312 132.378C189.612 135.181 191.259 138.798 191.259 143.316H193.259ZM187.615 130.861C183.867 127.608 179.087 126.016 173.359 126.016V128.016C178.698 128.016 182.984 129.49 186.304 132.371L187.615 130.861ZM173.359 126.016C170.683 126.016 168.464 126.82 166.836 128.526L168.282 129.907C169.454 128.679 171.102 128.016 173.359 128.016V126.016ZM166.852 128.509C165.293 130.067 164.459 131.879 164.459 133.916H166.459C166.459 132.486 167.025 131.165 168.266 129.923L166.852 128.509ZM164.459 133.916C164.459 135.714 164.697 137.228 165.265 138.363L167.053 137.469C166.688 136.737 166.459 135.584 166.459 133.916H164.459ZM165.265 138.363C165.825 139.485 166.757 140.468 167.982 141.333L169.136 139.699C168.094 138.964 167.426 138.214 167.053 137.469L165.265 138.363ZM168.038 141.369C169.247 142.109 170.297 142.718 171.185 143.197L172.133 141.436C171.288 140.98 170.271 140.39 169.08 139.663L168.038 141.369ZM171.185 143.197C172.093 143.685 173.493 144.333 175.365 145.135L176.153 143.297C174.291 142.499 172.959 141.88 172.133 141.436L171.185 143.197ZM175.377 145.14C177.311 145.94 178.629 146.501 179.345 146.826L180.173 145.006C179.422 144.664 178.074 144.092 176.141 143.292L175.377 145.14ZM179.345 146.826C183.021 148.497 185.166 149.488 185.812 149.81L186.706 148.022C186.019 147.678 183.83 146.668 180.173 145.006L179.345 146.826ZM185.888 149.845C186.504 150.091 187.434 150.538 188.693 151.201L189.625 149.431C188.351 148.761 187.347 148.274 186.63 147.988L185.888 149.845ZM188.693 151.201C189.935 151.854 190.785 152.41 191.295 152.863L192.623 151.369C191.933 150.755 190.917 150.111 189.625 149.431L188.693 151.201ZM191.334 152.897C192.001 153.43 192.834 154.097 193.834 154.897L195.084 153.335C194.084 152.535 193.25 151.869 192.584 151.335L191.334 152.897ZM193.834 154.897C194.759 155.637 195.392 156.372 195.779 157.09L197.54 156.142C196.993 155.127 196.159 154.195 195.084 153.335L193.834 154.897ZM195.795 157.12C196.238 157.879 196.688 158.777 197.143 159.817L198.975 159.015C198.497 157.922 198.013 156.953 197.523 156.112L195.795 157.12ZM197.143 159.817C197.994 161.763 198.318 164.086 198.063 166.823L200.055 167.009C200.333 164.013 199.991 161.336 198.975 159.015L197.143 159.817ZM198.064 166.818C197.551 172.007 195.616 175.873 192.329 178.539L193.589 180.093C197.369 177.026 199.5 172.625 200.054 167.014L198.064 166.818ZM192.331 178.538C189.093 181.153 184.64 182.516 178.859 182.516V184.516C184.945 184.516 189.892 183.079 193.587 180.094L192.331 178.538ZM178.859 182.516C173.703 182.516 168.56 181.196 163.42 178.528L162.498 180.304C167.891 183.102 173.348 184.516 178.859 184.516V182.516ZM163.419 178.528C161.619 177.595 160.093 177.016 158.959 177.016V179.016C159.559 179.016 160.699 179.37 162.499 180.304L163.419 178.528ZM158.959 177.016C157.551 177.016 156.316 177.4 155.45 178.337C154.597 179.259 154.259 180.547 154.259 182.016H156.259C156.259 180.818 156.538 180.106 156.918 179.695C157.285 179.298 157.901 179.016 158.959 179.016V177.016Z" fill="black"/>
</g>
<g filter="url(#filter3_d)">
<path d="M136.091 155C151.091 155 158.591 146.5 158.591 129.5H161.591V158H91.0912V155H98.5912V77H91.0912V74H160.091V99.5H157.091C157.091 90.6 155.291 84.65 151.691 81.65C148.191 78.55 142.491 77 134.591 77H121.091V113H127.091C134.291 113 138.841 112.1 140.741 110.3C142.641 108.5 143.591 104.9 143.591 99.5H146.591V129.5H143.591C143.591 123.9 142.641 120.25 140.741 118.55C138.841 116.85 134.291 116 127.091 116H121.091V155H136.091Z" fill="#06FCE5"/>
<path d="M158.591 129.5V128.5H157.591V129.5H158.591ZM161.591 129.5H162.591V128.5H161.591V129.5ZM161.591 158V159H162.591V158H161.591ZM91.0912 158H90.0912V159H91.0912V158ZM91.0912 155V154H90.0912V155H91.0912ZM98.5912 155V156H99.5912V155H98.5912ZM98.5912 77H99.5912V76H98.5912V77ZM91.0912 77H90.0912V78H91.0912V77ZM91.0912 74V73H90.0912V74H91.0912ZM160.091 74H161.091V73H160.091V74ZM160.091 99.5V100.5H161.091V99.5H160.091ZM157.091 99.5H156.091V100.5H157.091V99.5ZM151.691 81.65L151.028 82.3986L151.039 82.4086L151.051 82.4182L151.691 81.65ZM121.091 77V76H120.091V77H121.091ZM121.091 113H120.091V114H121.091V113ZM143.591 99.5V98.5H142.591V99.5H143.591ZM146.591 99.5H147.591V98.5H146.591V99.5ZM146.591 129.5V130.5H147.591V129.5H146.591ZM143.591 129.5H142.591V130.5H143.591V129.5ZM140.741 118.55L141.408 117.805L140.741 118.55ZM121.091 116V115H120.091V116H121.091ZM121.091 155H120.091V156H121.091V155ZM136.091 156C143.78 156 149.72 153.816 153.716 149.287C157.691 144.781 159.591 138.125 159.591 129.5H157.591C157.591 137.875 155.741 143.969 152.216 147.963C148.713 151.934 143.402 154 136.091 154V156ZM158.591 130.5H161.591V128.5H158.591V130.5ZM160.591 129.5V158H162.591V129.5H160.591ZM161.591 157H91.0912V159H161.591V157ZM92.0912 158V155H90.0912V158H92.0912ZM91.0912 156H98.5912V154H91.0912V156ZM99.5912 155V77H97.5912V155H99.5912ZM98.5912 76H91.0912V78H98.5912V76ZM92.0912 77V74H90.0912V77H92.0912ZM91.0912 75H160.091V73H91.0912V75ZM159.091 74V99.5H161.091V74H159.091ZM160.091 98.5H157.091V100.5H160.091V98.5ZM158.091 99.5C158.091 90.5475 156.297 84.1864 152.331 80.8818L151.051 82.4182C154.286 85.1136 156.091 90.6525 156.091 99.5H158.091ZM152.354 80.9014C148.581 77.5596 142.58 76 134.591 76V78C142.403 78 147.801 79.5404 151.028 82.3986L152.354 80.9014ZM134.591 76H121.091V78H134.591V76ZM120.091 77V113H122.091V77H120.091ZM121.091 114H127.091V112H121.091V114ZM127.091 114C130.725 114 133.734 113.774 136.098 113.306C138.434 112.844 140.272 112.122 141.429 111.026L140.054 109.574C139.31 110.278 137.924 110.906 135.71 111.344C133.523 111.776 130.658 112 127.091 112V114ZM141.429 111.026C142.56 109.955 143.342 108.413 143.846 106.505C144.35 104.594 144.591 102.251 144.591 99.5H142.591C142.591 102.149 142.357 104.306 141.912 105.995C141.465 107.687 140.823 108.845 140.054 109.574L141.429 111.026ZM143.591 100.5H146.591V98.5H143.591V100.5ZM145.591 99.5V129.5H147.591V99.5H145.591ZM146.591 128.5H143.591V130.5H146.591V128.5ZM144.591 129.5C144.591 126.652 144.351 124.247 143.847 122.311C143.344 120.381 142.559 118.835 141.408 117.805L140.074 119.295C140.823 119.965 141.463 121.094 141.911 122.814C142.357 124.528 142.591 126.748 142.591 129.5H144.591ZM141.408 117.805C140.251 116.769 138.416 116.09 136.087 115.655C133.728 115.214 130.723 115 127.091 115V117C130.66 117 133.529 117.211 135.72 117.62C137.941 118.035 139.332 118.631 140.074 119.295L141.408 117.805ZM127.091 115H121.091V117H127.091V115ZM120.091 116V155H122.091V116H120.091ZM121.091 156H136.091V154H121.091V156Z" fill="#5656B1"/>
</g>
<g filter="url(#filter4_d)">
<path d="M64.9806 139.336C54.4481 139.469 45.9332 137.177 39.4357 132.458C33.0716 127.739 29.797 120.846 29.612 111.781C29.5114 106.849 30.9575 102.564 33.9505 98.9261C37.074 95.1531 40.8356 93.2389 45.2353 93.1833C49.6349 93.1278 53.1299 94.4837 55.7202 97.2511C58.441 99.8836 59.8436 103.266 59.928 107.398C60.0613 113.93 56.6833 118.307 49.7941 120.527C48.9996 120.804 47.8732 121.151 46.4148 121.57C45.087 121.853 44.0925 122.133 43.4313 122.408C41.7063 122.829 40.8655 124.107 40.9091 126.24C40.9526 128.372 42.7266 130.35 46.2311 132.173C49.8689 133.993 53.8876 134.876 58.2873 134.821C74.1527 134.62 81.8487 122.922 81.3753 99.7273L79.9754 31.1416L69.9762 31.2679L69.8946 27.2687L119.891 26.6374L119.972 30.6366L109.973 30.7628L111.336 97.5489C111.6 110.48 107.874 120.66 100.157 128.092C92.4383 135.389 80.7127 139.138 64.9806 139.336Z" fill="#C4C4C4"/>
<path d="M64.9806 139.336C54.4481 139.469 45.9332 137.177 39.4357 132.458C33.0716 127.739 29.797 120.846 29.612 111.781C29.5114 106.849 30.9575 102.564 33.9505 98.9261C37.074 95.1531 40.8356 93.2389 45.2353 93.1833C49.6349 93.1278 53.1299 94.4837 55.7202 97.2511C58.441 99.8836 59.8436 103.266 59.928 107.398C60.0613 113.93 56.6833 118.307 49.7941 120.527C48.9996 120.804 47.8732 121.151 46.4148 121.57C45.087 121.853 44.0925 122.133 43.4313 122.408C41.7063 122.829 40.8655 124.107 40.9091 126.24C40.9526 128.372 42.7266 130.35 46.2311 132.173C49.8689 133.993 53.8876 134.876 58.2873 134.821C74.1527 134.62 81.8487 122.922 81.3753 99.7273L79.9754 31.1416L69.9762 31.2679L69.8946 27.2687L119.891 26.6374L119.972 30.6366L109.973 30.7628L111.336 97.5489C111.6 110.48 107.874 120.66 100.157 128.092C92.4383 135.389 80.7127 139.138 64.9806 139.336Z" fill="#3BD0C2" fill-opacity="0.99"/>
<path d="M39.4357 132.458L38.8439 133.26L38.8521 133.266L39.4357 132.458ZM33.9505 98.9261L33.178 98.285L33.176 98.2874L33.9505 98.9261ZM55.7202 97.2511L54.9924 97.9313L55.0095 97.9496L55.0275 97.967L55.7202 97.2511ZM49.7941 120.527L49.4805 119.575L49.4695 119.579L49.4585 119.583L49.7941 120.527ZM46.4148 121.57L46.6309 122.548L46.6645 122.541L46.6976 122.531L46.4148 121.57ZM43.4313 122.408L43.6761 123.379L43.7507 123.361L43.8216 123.331L43.4313 122.408ZM46.2311 132.173L45.775 133.059L45.7819 133.063L45.7889 133.066L46.2311 132.173ZM79.9754 31.1416L80.9753 31.129L80.9549 30.1292L79.955 30.1418L79.9754 31.1416ZM69.9762 31.2679L68.9763 31.2805L68.9967 32.2803L69.9966 32.2677L69.9762 31.2679ZM69.8946 27.2687L69.8742 26.2689L68.8742 26.2815L68.8946 27.2813L69.8946 27.2687ZM119.891 26.6374L120.89 26.6248L120.87 25.625L119.87 25.6376L119.891 26.6374ZM119.972 30.6366L119.993 31.6363L120.993 31.6237L120.972 30.6239L119.972 30.6366ZM109.973 30.7628L109.953 29.763L108.953 29.7757L108.973 30.7754L109.973 30.7628ZM100.157 128.092L100.848 128.821L100.854 128.814L100.157 128.092ZM64.9602 138.336C54.5757 138.468 46.2927 136.207 40.0194 131.651L38.8521 133.266C45.5737 138.147 54.3205 140.471 65.001 140.336L64.9602 138.336ZM40.0276 131.657C33.9538 127.153 30.7917 120.575 30.6119 111.769L28.6121 111.794C28.8024 121.118 32.1894 128.325 38.8439 133.26L40.0276 131.657ZM30.6119 111.769C30.5159 107.063 31.8893 103.012 34.7249 99.5648L33.176 98.2874C30.0258 102.117 28.5068 106.635 28.6121 111.794L30.6119 111.769ZM34.7229 99.5671C37.6855 95.9887 41.1843 94.2345 45.2557 94.1831L45.2149 92.1835C40.4869 92.2432 36.4625 94.3176 33.178 98.285L34.7229 99.5671ZM45.2557 94.1831C49.424 94.1305 52.6285 95.4057 54.9924 97.9313L56.4479 96.571C53.6312 93.5616 49.8458 92.125 45.2149 92.1835L45.2557 94.1831ZM55.0275 97.967C57.5378 100.396 58.8486 103.516 58.9281 107.411L60.9279 107.386C60.8387 103.016 59.3443 99.3715 56.4128 96.5352L55.0275 97.967ZM58.9281 107.411C58.9909 110.492 58.2281 112.986 56.7009 114.965C55.1666 116.953 52.7925 118.508 49.4805 119.575L50.1077 121.479C53.685 120.326 56.4444 118.583 58.2881 116.194C60.1388 113.797 60.9983 110.837 60.9279 107.386L58.9281 107.411ZM49.4585 119.583C48.69 119.85 47.5843 120.192 46.132 120.609L46.6976 122.531C48.1621 122.111 49.3092 121.757 50.1297 121.472L49.4585 119.583ZM46.1987 120.592C44.854 120.879 43.788 121.173 43.041 121.484L43.8216 123.331C44.397 123.092 45.32 122.828 46.6309 122.548L46.1987 120.592ZM43.1866 121.436C42.1221 121.696 41.2497 122.247 40.6702 123.128C40.1041 123.988 39.8848 125.06 39.9092 126.252L41.909 126.227C41.8898 125.286 42.0692 124.653 42.3438 124.236C42.605 123.839 43.0155 123.54 43.6761 123.379L43.1866 121.436ZM39.9092 126.252C39.9649 128.984 42.2203 131.21 45.775 133.059L46.6872 131.286C43.233 129.49 41.9403 127.761 41.909 126.227L39.9092 126.252ZM45.7889 133.066C49.5825 134.965 53.7618 135.878 58.3077 135.82L58.2669 133.821C54.0135 133.874 50.1554 133.022 46.6733 131.279L45.7889 133.066ZM58.3077 135.82C66.5209 135.717 72.7408 132.614 76.7952 126.451C80.8043 120.357 82.6136 111.395 82.3752 99.7147L80.3753 99.7399C80.6104 111.255 78.8084 119.739 75.1215 125.343C71.4798 130.878 65.9191 133.724 58.2669 133.821L58.3077 135.82ZM82.3752 99.7147L80.9753 31.129L78.9755 31.1542L80.3753 99.7399L82.3752 99.7147ZM79.955 30.1418L69.9558 30.2681L69.9966 32.2677L79.9958 32.1414L79.955 30.1418ZM70.9761 31.2552L70.8945 27.2561L68.8946 27.2813L68.9763 31.2805L70.9761 31.2552ZM69.915 28.2685L119.911 27.6372L119.87 25.6376L69.8742 26.2689L69.915 28.2685ZM118.891 26.65L118.972 30.6492L120.972 30.6239L120.89 26.6248L118.891 26.65ZM119.952 29.6368L109.953 29.763L109.993 31.7626L119.993 31.6363L119.952 29.6368ZM108.973 30.7754L110.336 97.5615L112.336 97.5363L110.973 30.7502L108.973 30.7754ZM110.336 97.5615C110.596 110.276 106.938 120.168 99.4607 127.369L100.854 128.814C108.809 121.153 112.604 110.683 112.336 97.5363L110.336 97.5615ZM99.4673 127.363C91.9987 134.424 80.559 138.14 64.9602 138.336L65.001 140.336C80.8664 140.136 92.8779 136.355 100.848 128.821L99.4673 127.363Z" fill="black"/>
</g>
</g>
<defs>
<filter id="filter0_i" x="4" y="0" width="240" height="235" filterUnits="userSpaceOnUse" color-interpolation-filters="sRGB">
<feFlood flood-opacity="0" result="BackgroundImageFix"/>
<feBlend mode="normal" in="SourceGraphic" in2="BackgroundImageFix" result="shape"/>
<feColorMatrix in="SourceAlpha" type="matrix" values="0 0 0 0 0 0 0 0 0 0 0 0 0 0 0 0 0 0 127 0" result="hardAlpha"/>
<feOffset dy="4"/>
<feGaussianBlur stdDeviation="2"/>
<feComposite in2="hardAlpha" operator="arithmetic" k2="-1" k3="1"/>
<feColorMatrix type="matrix" values="0 0 0 0 0 0 0 0 0 0 0 0 0 0 0 0 0 0 0.25 0"/>
<feBlend mode="normal" in2="shape" result="effect1_innerShadow"/>
</filter>
<filter id="filter1_d" x="0" y="0" width="248" height="239" filterUnits="userSpaceOnUse" color-interpolation-filters="sRGB">
<feFlood flood-opacity="0" result="BackgroundImageFix"/>
<feColorMatrix in="SourceAlpha" type="matrix" values="0 0 0 0 0 0 0 0 0 0 0 0 0 0 0 0 0 0 127 0" result="hardAlpha"/>
<feOffset dy="4"/>
<feGaussianBlur stdDeviation="2"/>
<feComposite in2="hardAlpha" operator="out"/>
<feColorMatrix type="matrix" values="0 0 0 0 0 0 0 0 0 0 0 0 0 0 0 0 0 0 0.25 0"/>
<feBlend mode="normal" in2="BackgroundImageFix" result="effect1_dropShadow"/>
<feBlend mode="normal" in="SourceGraphic" in2="effect1_dropShadow" result="shape"/>
</filter>
<filter id="filter2_d" x="149.259" y="125.016" width="53.8889" height="66.5" filterUnits="userSpaceOnUse" color-interpolation-filters="sRGB">
<feFlood flood-opacity="0" result="BackgroundImageFix"/>
<feColorMatrix in="SourceAlpha" type="matrix" values="0 0 0 0 0 0 0 0 0 0 0 0 0 0 0 0 0 0 127 0" result="hardAlpha"/>
<feOffset dy="4"/>
<feGaussianBlur stdDeviation="2"/>
<feComposite in2="hardAlpha" operator="out"/>
<feColorMatrix type="matrix" values="0 0 0 0 0 0 0 0 0 0 0 0 0 0 0 0 0 0 0.25 0"/>
<feBlend mode="normal" in2="BackgroundImageFix" result="effect1_dropShadow"/>
<feBlend mode="normal" in="SourceGraphic" in2="effect1_dropShadow" result="shape"/>
</filter>
<filter id="filter3_d" x="87.0912" y="74" width="78.5" height="92" filterUnits="userSpaceOnUse" color-interpolation-filters="sRGB">
<feFlood flood-opacity="0" result="BackgroundImageFix"/>
<feColorMatrix in="SourceAlpha" type="matrix" values="0 0 0 0 0 0 0 0 0 0 0 0 0 0 0 0 0 0 127 0" result="hardAlpha"/>
<feOffset dy="4"/>
<feGaussianBlur stdDeviation="2"/>
<feComposite in2="hardAlpha" operator="out"/>
<feColorMatrix type="matrix" values="0 0 0 0 0 0 0 0 0 0 0 0 0 0 0 0 0 0 0.25 0"/>
<feBlend mode="normal" in2="BackgroundImageFix" result="effect1_dropShadow"/>
<feBlend mode="normal" in="SourceGraphic" in2="effect1_dropShadow" result="shape"/>
</filter>
<filter id="filter4_d" x="25.6071" y="26.6374" width="98.3651" height="120.704" filterUnits="userSpaceOnUse" color-interpolation-filters="sRGB">
<feFlood flood-opacity="0" result="BackgroundImageFix"/>
<feColorMatrix in="SourceAlpha" type="matrix" values="0 0 0 0 0 0 0 0 0 0 0 0 0 0 0 0 0 0 127 0" result="hardAlpha"/>
<feOffset dy="4"/>
<feGaussianBlur stdDeviation="2"/>
<feComposite in2="hardAlpha" operator="out"/>
<feColorMatrix type="matrix" values="0 0 0 0 0 0 0 0 0 0 0 0 0 0 0 0 0 0 0.25 0"/>
<feBlend mode="normal" in2="BackgroundImageFix" result="effect1_dropShadow"/>
<feBlend mode="normal" in="SourceGraphic" in2="effect1_dropShadow" result="shape"/>
</filter>
</defs>
</svg>
