<svg width="50" height="50" viewBox="0 0 50 50" fill="none" xmlns="http://www.w3.org/2000/svg">
<path fill-rule="evenodd" clip-rule="evenodd" d="M25 50C18.7812 50 6.25 29.7313 6.25 18.6938C6.25 8.36875 14.6438 0 25 0C35.3562 0 43.75 8.36875 43.75 18.6938C43.75 29.7313 31.2188 50 25 50ZM25 6.3375C18.1313 6.31875 12.5406 11.8438 12.5 18.6938C13.1344 24.6625 15.25 30.3719 18.6625 35.3187C20.1 37.675 21.7312 39.9125 23.55 41.9875C24.2875 42.7687 25 43.4125 25 43.4125C25 43.4125 25.7188 42.7875 26.4531 41.9875C28.2719 39.9094 29.9062 37.675 31.3375 35.3156C34.7437 30.3781 36.8687 24.6594 37.5 18.6969C37.4594 11.8469 31.8687 6.32188 25 6.34063V6.3375ZM25 25.075C21.5781 25.0531 18.8219 22.2719 18.8375 18.8562C18.8531 15.45 21.6375 12.6938 25.0562 12.7C28.4812 12.7125 31.2531 15.4813 31.25 18.8875C31.2437 20.5375 30.5812 22.1156 29.4062 23.275C28.2375 24.4312 26.65 25.0875 25 25.075Z" fill="#F40B0B"/>
</svg>
