<svg width="41" height="45" viewBox="0 0 41 45" fill="none" xmlns="http://www.w3.org/2000/svg">
<path d="M12.5932 9.92045C12.2062 9.8639 11.8115 9.94158 11.4748 10.1406H11.4461C10.6644 10.5988 9.96026 11.1779 9.35977 11.8564C8.86075 12.4333 8.59004 13.0171 8.51895 13.579C8.47657 13.914 8.50528 14.249 8.60508 14.5689L8.64063 14.5908C9.20255 16.2423 9.93673 17.831 10.8336 19.3267C11.9889 21.428 13.4107 23.3713 15.0637 25.1085L15.1129 25.1796L15.1908 25.237L15.24 25.2945L15.2975 25.3437C17.0409 27.0015 18.989 28.4299 21.0943 29.5943C23.5006 30.904 24.9607 31.5234 25.8371 31.7804V31.7941C26.0941 31.872 26.3279 31.9076 26.5631 31.9076C27.31 31.8528 28.017 31.5496 28.5715 31.0462C29.2469 30.4456 29.8196 29.7385 30.2668 28.9531V28.9394C30.6865 28.1492 30.5443 27.4013 29.9387 26.8954C28.7257 25.8352 27.4141 24.8935 26.0217 24.0831C25.0893 23.5773 24.1418 23.8835 23.7576 24.3962L22.9387 25.4285C22.519 25.9411 21.7561 25.8701 21.7561 25.8701L21.7342 25.8837C16.0453 24.4304 14.5277 18.6704 14.5277 18.6704C14.5277 18.6704 14.4566 17.887 14.983 17.4878L16.0084 16.662C16.4992 16.2628 16.841 15.3167 16.3147 14.3829C15.5099 12.9886 14.5703 11.6767 13.5092 10.466C13.2772 10.1805 12.9518 9.98633 12.5904 9.91771L12.5932 9.92045Z" fill="#1849F3"/>
<path d="M22.2068 7.41667C21.6315 7.41667 21.1651 7.88304 21.1651 8.45834C21.1651 9.03364 21.6315 9.50001 22.2068 9.50001C24.8411 9.50001 27.0301 10.3611 28.7593 12.0099C29.6496 12.9128 30.3425 13.9816 30.7974 15.1511C31.2541 16.3251 31.4618 17.5769 31.4085 18.8308C31.3841 19.4055 31.8302 19.8913 32.405 19.9157C32.9798 19.9402 33.4655 19.494 33.49 18.9193C33.5556 17.3767 33.2999 15.8376 32.739 14.3958C32.1782 12.9541 31.3246 11.6404 30.2307 10.5343L30.2097 10.5143C28.064 8.46217 25.344 7.41667 22.2068 7.41667Z" fill="#1849F3"/>
<path d="M22.1359 10.8424C21.5606 10.8424 21.0942 11.3087 21.0942 11.884C21.0942 12.4593 21.5606 12.9257 22.1359 12.9257H22.1699C24.0708 13.0596 25.454 13.6933 26.4237 14.7334C27.4164 15.8045 27.9307 17.135 27.8926 18.7812C27.8793 19.3563 28.3347 19.8334 28.9099 19.8467C29.485 19.86 29.962 19.4046 29.9754 18.8294C30.0254 16.668 29.3303 14.8041 27.9506 13.3159L27.9488 13.314C26.5391 11.8013 24.6053 11.0011 22.2754 10.8447L22.2406 10.8424H22.1359Z" fill="#1849F3"/>
<path d="M22.0965 14.3306C21.5219 14.3003 21.0317 14.7416 21.0015 15.3161C20.9712 15.8906 21.4124 16.3808 21.9869 16.411C22.8591 16.457 23.4151 16.7186 23.7647 17.0716C24.1158 17.4261 24.3784 17.9937 24.4263 18.8838C24.4572 19.4583 24.9479 19.8989 25.5224 19.868C26.0969 19.8371 26.5375 19.3464 26.5066 18.7719C26.4394 17.5219 26.0482 16.4167 25.245 15.6056C24.4402 14.793 23.3413 14.3961 22.0965 14.3306Z" fill="#1849F3"/>
<path fill-rule="evenodd" clip-rule="evenodd" d="M10.7224 1.96558C17.3517 0.483721 24.2265 0.483721 30.8559 1.96558L31.5622 2.12347C35.5139 3.00677 38.6327 6.03765 39.6287 9.96239C41.3115 16.5933 41.3115 23.5395 39.6287 30.1705C38.6327 34.0952 35.5139 37.1261 31.5622 38.0094L30.8559 38.1673C26.6917 39.0981 22.4306 39.4442 18.1944 39.2057L12.6669 44.1513C12.2424 44.5311 11.645 44.6499 11.1076 44.4613C10.5702 44.2727 10.178 43.8066 10.0839 43.2449L9.16975 37.7837C5.62311 36.6817 2.8733 33.8105 1.94956 30.1705C0.266814 23.5395 0.266814 16.5933 1.94956 9.96239C2.94555 6.03765 6.06441 3.00677 10.016 2.12346L10.7224 1.96558ZM30.1742 5.01532C23.9938 3.63381 17.5845 3.63381 11.4041 5.01532L10.6977 5.1732C7.89601 5.79947 5.68471 7.94839 4.97855 10.7311C3.42382 16.8575 3.42382 23.2753 4.97855 29.4018C5.68471 32.1845 7.89601 34.3334 10.6977 34.9596L10.8843 35.0014C11.5049 35.1401 11.9795 35.6411 12.0845 36.2682L12.6976 39.9306L16.5984 36.4404C16.9133 36.1586 17.329 36.0164 17.7506 36.0462C21.9037 36.3403 26.0889 36.0307 30.1742 35.1175L30.8805 34.9596C33.6823 34.3334 35.8936 32.1845 36.5997 29.4018C38.1544 23.2753 38.1544 16.8575 36.5997 10.7311C35.8936 7.94839 33.6823 5.79947 30.8805 5.1732L30.1742 5.01532Z" fill="#1849F3"/>
</svg>
