<svg width="112" height="112" viewBox="0 0 112 112" fill="none" xmlns="http://www.w3.org/2000/svg">
<path d="M56.1 111.1C86.4757 111.1 111.1 86.4757 111.1 56.1C111.1 25.7243 86.4757 1.10001 56.1 1.10001C25.7243 1.10001 1.10001 25.7243 1.10001 56.1C1.10001 86.4757 25.7243 111.1 56.1 111.1Z" fill="#11BCF2"/>
<path d="M83.8 47.3C83.8 47.9 83.8 48.5 83.8 49C83.8 66.7 70.3 87.2 45.6 87.2C38 87.2 31 85 25 81.2C26 81.3 27.1 81.4 28.2 81.4C34.5 81.4 40.3 79.3 44.9 75.7C39 75.6 34.1 71.7 32.4 66.4C33.2 66.6 34.1 66.6 34.9 66.6C36.1 66.6 37.3 66.4 38.4 66.1C32.3 64.9 27.6 59.4 27.6 53C27.6 52.9 27.6 52.9 27.6 52.8C29.4 53.8 31.5 54.4 33.7 54.5C30.1 52.1 27.7 48 27.7 43.3C27.7 40.8 28.4 38.5 29.5 36.6C36.1 44.7 46 50.1 57.1 50.6C56.9 49.6 56.8 48.6 56.8 47.5C56.8 40.1 62.8 34.1 70.2 34.1C74.1 34.1 77.5 35.7 80 38.3C83.1 37.7 85.9 36.6 88.5 35C87.5 38.1 85.4 40.8 82.6 42.4C85.3 42.1 87.9 41.4 90.3 40.3C88.7 43 86.4 45.4 83.8 47.3Z" fill="white"/>
</svg>

